<svg xmlns="http://www.w3.org/2000/svg" xmlns:xlink="http://www.w3.org/1999/xlink" width="1080" zoomAndPan="magnify" viewBox="0 0 810 809.999993" height="1080" preserveAspectRatio="xMidYMid meet" version="1.0"><defs><clipPath id="e087b3a734"><path d="M 63 405 L 761 405 L 761 810 L 63 810 Z M 63 405 " clip-rule="nonzero"/></clipPath><clipPath id="0194690dde"><path d="M 84.585938 405.945312 L 760.050781 440.148438 L 725.414062 1124.199219 L 49.949219 1089.996094 Z M 84.585938 405.945312 " clip-rule="nonzero"/></clipPath><clipPath id="5902f80952"><path d="M 84.445312 405.789062 L 760.078125 440 L 739.445312 847.476562 L 63.8125 813.265625 Z M 84.445312 405.789062 " clip-rule="nonzero"/></clipPath><clipPath id="1207048d88"><path d="M 83.734375 405 L 760.867188 439.289062 L 726.125 1125.410156 L 48.992188 1091.121094 Z M 83.734375 405 " clip-rule="nonzero"/></clipPath><clipPath id="2dbaa1c87c"><path d="M 218 454 L 759 454 L 759 810 L 218 810 Z M 218 454 " clip-rule="nonzero"/></clipPath><clipPath id="71747f7c0d"><path d="M 84.585938 405.945312 L 760.050781 440.148438 L 725.414062 1124.199219 L 49.949219 1089.996094 Z M 84.585938 405.945312 " clip-rule="nonzero"/></clipPath><clipPath id="88f99eb135"><path d="M 84.445312 405.789062 L 760.078125 440 L 739.445312 847.476562 L 63.8125 813.265625 Z M 84.445312 405.789062 " clip-rule="nonzero"/></clipPath><clipPath id="ae8285a623"><path d="M 83.734375 405 L 760.867188 439.289062 L 726.125 1125.410156 L 48.992188 1091.121094 Z M 83.734375 405 " clip-rule="nonzero"/></clipPath><clipPath id="af7d0a0df4"><path d="M 251 413 L 761 413 L 761 478 L 251 478 Z M 251 413 " clip-rule="nonzero"/></clipPath><clipPath id="556b037432"><path d="M 84.585938 405.945312 L 760.050781 440.148438 L 725.414062 1124.199219 L 49.949219 1089.996094 Z M 84.585938 405.945312 " clip-rule="nonzero"/></clipPath><clipPath id="f90ec8d763"><path d="M 84.445312 405.789062 L 760.078125 440 L 739.445312 847.476562 L 63.8125 813.265625 Z M 84.445312 405.789062 " clip-rule="nonzero"/></clipPath><clipPath id="f58f97e0c2"><path d="M 83.734375 405 L 760.867188 439.289062 L 726.125 1125.410156 L 48.992188 1091.121094 Z M 83.734375 405 " clip-rule="nonzero"/></clipPath><clipPath id="ef4c2d28e2"><path d="M 81 405 L 759 405 L 759 810 L 81 810 Z M 81 405 " clip-rule="nonzero"/></clipPath><clipPath id="328e630eba"><path d="M 84.585938 405.945312 L 760.050781 440.148438 L 725.414062 1124.199219 L 49.949219 1089.996094 Z M 84.585938 405.945312 " clip-rule="nonzero"/></clipPath><clipPath id="2a77176fc4"><path d="M 84.445312 405.789062 L 760.078125 440 L 739.445312 847.476562 L 63.8125 813.265625 Z M 84.445312 405.789062 " clip-rule="nonzero"/></clipPath><clipPath id="6ad059d36c"><path d="M 83.734375 405 L 760.867188 439.289062 L 726.125 1125.410156 L 48.992188 1091.121094 Z M 83.734375 405 " clip-rule="nonzero"/></clipPath><clipPath id="0cefb3b5b3"><path d="M 81 413 L 759 413 L 759 810 L 81 810 Z M 81 413 " clip-rule="nonzero"/></clipPath><clipPath id="fe76a3e547"><path d="M 84.585938 405.945312 L 760.050781 440.148438 L 725.414062 1124.199219 L 49.949219 1089.996094 Z M 84.585938 405.945312 " clip-rule="nonzero"/></clipPath><clipPath id="d10475ae17"><path d="M 84.445312 405.789062 L 760.078125 440 L 739.445312 847.476562 L 63.8125 813.265625 Z M 84.445312 405.789062 " clip-rule="nonzero"/></clipPath><clipPath id="d412d24b93"><path d="M 83.734375 405 L 760.867188 439.289062 L 726.125 1125.410156 L 48.992188 1091.121094 Z M 83.734375 405 " clip-rule="nonzero"/></clipPath><clipPath id="9c0d1dd080"><path d="M 465 750 L 516 750 L 516 800 L 465 800 Z M 465 750 " clip-rule="nonzero"/></clipPath><clipPath id="61e27f90eb"><path d="M 84.585938 405.945312 L 760.050781 440.148438 L 725.414062 1124.199219 L 49.949219 1089.996094 Z M 84.585938 405.945312 " clip-rule="nonzero"/></clipPath><clipPath id="7ad307e085"><path d="M 84.445312 405.789062 L 760.078125 440 L 739.445312 847.476562 L 63.8125 813.265625 Z M 84.445312 405.789062 " clip-rule="nonzero"/></clipPath><clipPath id="2964672523"><path d="M 83.734375 405 L 760.867188 439.289062 L 726.125 1125.410156 L 48.992188 1091.121094 Z M 83.734375 405 " clip-rule="nonzero"/></clipPath><clipPath id="7ecc1c2bd8"><path d="M 475 760 L 505 760 L 505 791 L 475 791 Z M 475 760 " clip-rule="nonzero"/></clipPath><clipPath id="21f7dc7417"><path d="M 84.585938 405.945312 L 760.050781 440.148438 L 725.414062 1124.199219 L 49.949219 1089.996094 Z M 84.585938 405.945312 " clip-rule="nonzero"/></clipPath><clipPath id="2af69279cf"><path d="M 84.445312 405.789062 L 760.078125 440 L 739.445312 847.476562 L 63.8125 813.265625 Z M 84.445312 405.789062 " clip-rule="nonzero"/></clipPath><clipPath id="47fbc4664b"><path d="M 83.734375 405 L 760.867188 439.289062 L 726.125 1125.410156 L 48.992188 1091.121094 Z M 83.734375 405 " clip-rule="nonzero"/></clipPath><clipPath id="95bf6feda0"><path d="M 91 458 L 101 458 L 101 470 L 91 470 Z M 91 458 " clip-rule="nonzero"/></clipPath><clipPath id="1abbe0db47"><path d="M 84.585938 405.945312 L 760.050781 440.148438 L 725.414062 1124.199219 L 49.949219 1089.996094 Z M 84.585938 405.945312 " clip-rule="nonzero"/></clipPath><clipPath id="c52858889d"><path d="M 84.445312 405.789062 L 760.078125 440 L 739.445312 847.476562 L 63.8125 813.265625 Z M 84.445312 405.789062 " clip-rule="nonzero"/></clipPath><clipPath id="aee4e2d3b9"><path d="M 83.734375 405 L 760.867188 439.289062 L 726.125 1125.410156 L 48.992188 1091.121094 Z M 83.734375 405 " clip-rule="nonzero"/></clipPath><clipPath id="98e20c8a51"><path d="M 324 433 L 332 433 L 332 443 L 324 443 Z M 324 433 " clip-rule="nonzero"/></clipPath><clipPath id="6a0881fa3c"><path d="M 84.585938 405.945312 L 760.050781 440.148438 L 725.414062 1124.199219 L 49.949219 1089.996094 Z M 84.585938 405.945312 " clip-rule="nonzero"/></clipPath><clipPath id="fe8aaf2863"><path d="M 84.445312 405.789062 L 760.078125 440 L 739.445312 847.476562 L 63.8125 813.265625 Z M 84.445312 405.789062 " clip-rule="nonzero"/></clipPath><clipPath id="2ab7bc3b50"><path d="M 83.734375 405 L 760.867188 439.289062 L 726.125 1125.410156 L 48.992188 1091.121094 Z M 83.734375 405 " clip-rule="nonzero"/></clipPath><clipPath id="e9d84558c1"><path d="M 91 458 L 101 458 L 101 470 L 91 470 Z M 91 458 " clip-rule="nonzero"/></clipPath><clipPath id="7f4a690ecd"><path d="M 84.585938 405.945312 L 760.050781 440.148438 L 725.414062 1124.199219 L 49.949219 1089.996094 Z M 84.585938 405.945312 " clip-rule="nonzero"/></clipPath><clipPath id="ed8bda400c"><path d="M 84.445312 405.789062 L 760.078125 440 L 739.445312 847.476562 L 63.8125 813.265625 Z M 84.445312 405.789062 " clip-rule="nonzero"/></clipPath><clipPath id="dd7ca95701"><path d="M 83.734375 405 L 760.867188 439.289062 L 726.125 1125.410156 L 48.992188 1091.121094 Z M 83.734375 405 " clip-rule="nonzero"/></clipPath><clipPath id="92323bc731"><path d="M 309 430 L 318 430 L 318 440 L 309 440 Z M 309 430 " clip-rule="nonzero"/></clipPath><clipPath id="6dd08ac55a"><path d="M 84.585938 405.945312 L 760.050781 440.148438 L 725.414062 1124.199219 L 49.949219 1089.996094 Z M 84.585938 405.945312 " clip-rule="nonzero"/></clipPath><clipPath id="a9416316e0"><path d="M 84.445312 405.789062 L 760.078125 440 L 739.445312 847.476562 L 63.8125 813.265625 Z M 84.445312 405.789062 " clip-rule="nonzero"/></clipPath><clipPath id="00776153be"><path d="M 83.734375 405 L 760.867188 439.289062 L 726.125 1125.410156 L 48.992188 1091.121094 Z M 83.734375 405 " clip-rule="nonzero"/></clipPath><clipPath id="47f1396844"><path d="M 274 430 L 281 430 L 281 438 L 274 438 Z M 274 430 " clip-rule="nonzero"/></clipPath><clipPath id="da3f755c70"><path d="M 84.585938 405.945312 L 760.050781 440.148438 L 725.414062 1124.199219 L 49.949219 1089.996094 Z M 84.585938 405.945312 " clip-rule="nonzero"/></clipPath><clipPath id="2d915ffb41"><path d="M 84.445312 405.789062 L 760.078125 440 L 739.445312 847.476562 L 63.8125 813.265625 Z M 84.445312 405.789062 " clip-rule="nonzero"/></clipPath><clipPath id="f977d9c92c"><path d="M 83.734375 405 L 760.867188 439.289062 L 726.125 1125.410156 L 48.992188 1091.121094 Z M 83.734375 405 " clip-rule="nonzero"/></clipPath><clipPath id="26eb380fc3"><path d="M 299 431 L 306 431 L 306 439 L 299 439 Z M 299 431 " clip-rule="nonzero"/></clipPath><clipPath id="b6637cfed9"><path d="M 84.585938 405.945312 L 760.050781 440.148438 L 725.414062 1124.199219 L 49.949219 1089.996094 Z M 84.585938 405.945312 " clip-rule="nonzero"/></clipPath><clipPath id="c1856d1b93"><path d="M 84.445312 405.789062 L 760.078125 440 L 739.445312 847.476562 L 63.8125 813.265625 Z M 84.445312 405.789062 " clip-rule="nonzero"/></clipPath><clipPath id="b6a64857b0"><path d="M 83.734375 405 L 760.867188 439.289062 L 726.125 1125.410156 L 48.992188 1091.121094 Z M 83.734375 405 " clip-rule="nonzero"/></clipPath><clipPath id="0802623823"><path d="M 292 431 L 300 431 L 300 439 L 292 439 Z M 292 431 " clip-rule="nonzero"/></clipPath><clipPath id="be1d8d5dd3"><path d="M 84.585938 405.945312 L 760.050781 440.148438 L 725.414062 1124.199219 L 49.949219 1089.996094 Z M 84.585938 405.945312 " clip-rule="nonzero"/></clipPath><clipPath id="62fe4fa34f"><path d="M 84.445312 405.789062 L 760.078125 440 L 739.445312 847.476562 L 63.8125 813.265625 Z M 84.445312 405.789062 " clip-rule="nonzero"/></clipPath><clipPath id="ca0c1746f8"><path d="M 83.734375 405 L 760.867188 439.289062 L 726.125 1125.410156 L 48.992188 1091.121094 Z M 83.734375 405 " clip-rule="nonzero"/></clipPath><clipPath id="35be64846c"><path d="M 281 431 L 288 431 L 288 439 L 281 439 Z M 281 431 " clip-rule="nonzero"/></clipPath><clipPath id="a00784f874"><path d="M 84.585938 405.945312 L 760.050781 440.148438 L 725.414062 1124.199219 L 49.949219 1089.996094 Z M 84.585938 405.945312 " clip-rule="nonzero"/></clipPath><clipPath id="2dc78a1cb9"><path d="M 84.445312 405.789062 L 760.078125 440 L 739.445312 847.476562 L 63.8125 813.265625 Z M 84.445312 405.789062 " clip-rule="nonzero"/></clipPath><clipPath id="db6f9989bb"><path d="M 83.734375 405 L 760.867188 439.289062 L 726.125 1125.410156 L 48.992188 1091.121094 Z M 83.734375 405 " clip-rule="nonzero"/></clipPath><clipPath id="319b4fd4fd"><path d="M 317 432 L 324 432 L 324 443 L 317 443 Z M 317 432 " clip-rule="nonzero"/></clipPath><clipPath id="313d33be69"><path d="M 84.585938 405.945312 L 760.050781 440.148438 L 725.414062 1124.199219 L 49.949219 1089.996094 Z M 84.585938 405.945312 " clip-rule="nonzero"/></clipPath><clipPath id="bcac35836f"><path d="M 84.445312 405.789062 L 760.078125 440 L 739.445312 847.476562 L 63.8125 813.265625 Z M 84.445312 405.789062 " clip-rule="nonzero"/></clipPath><clipPath id="86d32e2572"><path d="M 83.734375 405 L 760.867188 439.289062 L 726.125 1125.410156 L 48.992188 1091.121094 Z M 83.734375 405 " clip-rule="nonzero"/></clipPath><clipPath id="c8657bfe71"><path d="M 104 422 L 110 422 L 110 430 L 104 430 Z M 104 422 " clip-rule="nonzero"/></clipPath><clipPath id="cbdbb362b3"><path d="M 84.585938 405.945312 L 760.050781 440.148438 L 725.414062 1124.199219 L 49.949219 1089.996094 Z M 84.585938 405.945312 " clip-rule="nonzero"/></clipPath><clipPath id="f562ca5704"><path d="M 84.445312 405.789062 L 760.078125 440 L 739.445312 847.476562 L 63.8125 813.265625 Z M 84.445312 405.789062 " clip-rule="nonzero"/></clipPath><clipPath id="3983b8dd19"><path d="M 83.734375 405 L 760.867188 439.289062 L 726.125 1125.410156 L 48.992188 1091.121094 Z M 83.734375 405 " clip-rule="nonzero"/></clipPath><clipPath id="7aa5369a98"><path d="M 96 419 L 104 419 L 104 429 L 96 429 Z M 96 419 " clip-rule="nonzero"/></clipPath><clipPath id="1d0822edc5"><path d="M 84.585938 405.945312 L 760.050781 440.148438 L 725.414062 1124.199219 L 49.949219 1089.996094 Z M 84.585938 405.945312 " clip-rule="nonzero"/></clipPath><clipPath id="eb5daace1d"><path d="M 84.445312 405.789062 L 760.078125 440 L 739.445312 847.476562 L 63.8125 813.265625 Z M 84.445312 405.789062 " clip-rule="nonzero"/></clipPath><clipPath id="c0672d7c5f"><path d="M 83.734375 405 L 760.867188 439.289062 L 726.125 1125.410156 L 48.992188 1091.121094 Z M 83.734375 405 " clip-rule="nonzero"/></clipPath><clipPath id="e5a65877b6"><path d="M 727 450 L 734 450 L 734 462 L 727 462 Z M 727 450 " clip-rule="nonzero"/></clipPath><clipPath id="60ea49a1d8"><path d="M 84.585938 405.945312 L 760.050781 440.148438 L 725.414062 1124.199219 L 49.949219 1089.996094 Z M 84.585938 405.945312 " clip-rule="nonzero"/></clipPath><clipPath id="e74277fbbb"><path d="M 84.445312 405.789062 L 760.078125 440 L 739.445312 847.476562 L 63.8125 813.265625 Z M 84.445312 405.789062 " clip-rule="nonzero"/></clipPath><clipPath id="c91e0e2500"><path d="M 83.734375 405 L 760.867188 439.289062 L 726.125 1125.410156 L 48.992188 1091.121094 Z M 83.734375 405 " clip-rule="nonzero"/></clipPath><clipPath id="cc78fa5dbe"><path d="M 306 429 L 310 429 L 310 440 L 306 440 Z M 306 429 " clip-rule="nonzero"/></clipPath><clipPath id="e8a02af375"><path d="M 84.585938 405.945312 L 760.050781 440.148438 L 725.414062 1124.199219 L 49.949219 1089.996094 Z M 84.585938 405.945312 " clip-rule="nonzero"/></clipPath><clipPath id="b31dcaac01"><path d="M 84.445312 405.789062 L 760.078125 440 L 739.445312 847.476562 L 63.8125 813.265625 Z M 84.445312 405.789062 " clip-rule="nonzero"/></clipPath><clipPath id="078b3c1e19"><path d="M 83.734375 405 L 760.867188 439.289062 L 726.125 1125.410156 L 48.992188 1091.121094 Z M 83.734375 405 " clip-rule="nonzero"/></clipPath><clipPath id="b681a482f7"><path d="M 267 428 L 274 428 L 274 438 L 267 438 Z M 267 428 " clip-rule="nonzero"/></clipPath><clipPath id="2f5418c228"><path d="M 84.585938 405.945312 L 760.050781 440.148438 L 725.414062 1124.199219 L 49.949219 1089.996094 Z M 84.585938 405.945312 " clip-rule="nonzero"/></clipPath><clipPath id="2ae42ad46e"><path d="M 84.445312 405.789062 L 760.078125 440 L 739.445312 847.476562 L 63.8125 813.265625 Z M 84.445312 405.789062 " clip-rule="nonzero"/></clipPath><clipPath id="98caa4aa57"><path d="M 83.734375 405 L 760.867188 439.289062 L 726.125 1125.410156 L 48.992188 1091.121094 Z M 83.734375 405 " clip-rule="nonzero"/></clipPath><clipPath id="8c06d73adb"><path d="M 110 422 L 117 422 L 117 430 L 110 430 Z M 110 422 " clip-rule="nonzero"/></clipPath><clipPath id="276067e42b"><path d="M 84.585938 405.945312 L 760.050781 440.148438 L 725.414062 1124.199219 L 49.949219 1089.996094 Z M 84.585938 405.945312 " clip-rule="nonzero"/></clipPath><clipPath id="94aa28291c"><path d="M 84.445312 405.789062 L 760.078125 440 L 739.445312 847.476562 L 63.8125 813.265625 Z M 84.445312 405.789062 " clip-rule="nonzero"/></clipPath><clipPath id="725f580d56"><path d="M 83.734375 405 L 760.867188 439.289062 L 726.125 1125.410156 L 48.992188 1091.121094 Z M 83.734375 405 " clip-rule="nonzero"/></clipPath><clipPath id="1c4a4bad1e"><path d="M 117 422 L 124 422 L 124 430 L 117 430 Z M 117 422 " clip-rule="nonzero"/></clipPath><clipPath id="5d1baea512"><path d="M 84.585938 405.945312 L 760.050781 440.148438 L 725.414062 1124.199219 L 49.949219 1089.996094 Z M 84.585938 405.945312 " clip-rule="nonzero"/></clipPath><clipPath id="78b3be8f3d"><path d="M 84.445312 405.789062 L 760.078125 440 L 739.445312 847.476562 L 63.8125 813.265625 Z M 84.445312 405.789062 " clip-rule="nonzero"/></clipPath><clipPath id="5b69b95234"><path d="M 83.734375 405 L 760.867188 439.289062 L 726.125 1125.410156 L 48.992188 1091.121094 Z M 83.734375 405 " clip-rule="nonzero"/></clipPath><clipPath id="6f7fdafb0d"><path d="M 325 434 L 332 434 L 332 443 L 325 443 Z M 325 434 " clip-rule="nonzero"/></clipPath><clipPath id="a2639e82b9"><path d="M 84.585938 405.945312 L 760.050781 440.148438 L 725.414062 1124.199219 L 49.949219 1089.996094 Z M 84.585938 405.945312 " clip-rule="nonzero"/></clipPath><clipPath id="d1f8a9d98a"><path d="M 84.445312 405.789062 L 760.078125 440 L 739.445312 847.476562 L 63.8125 813.265625 Z M 84.445312 405.789062 " clip-rule="nonzero"/></clipPath><clipPath id="268ec21a1b"><path d="M 83.734375 405 L 760.867188 439.289062 L 726.125 1125.410156 L 48.992188 1091.121094 Z M 83.734375 405 " clip-rule="nonzero"/></clipPath><clipPath id="7843e7c1bd"><path d="M 320 433 L 325 433 L 325 440 L 320 440 Z M 320 433 " clip-rule="nonzero"/></clipPath><clipPath id="3058d93d91"><path d="M 84.585938 405.945312 L 760.050781 440.148438 L 725.414062 1124.199219 L 49.949219 1089.996094 Z M 84.585938 405.945312 " clip-rule="nonzero"/></clipPath><clipPath id="e6ebfc2f9e"><path d="M 84.445312 405.789062 L 760.078125 440 L 739.445312 847.476562 L 63.8125 813.265625 Z M 84.445312 405.789062 " clip-rule="nonzero"/></clipPath><clipPath id="4657d3ad1d"><path d="M 83.734375 405 L 760.867188 439.289062 L 726.125 1125.410156 L 48.992188 1091.121094 Z M 83.734375 405 " clip-rule="nonzero"/></clipPath><clipPath id="b7b72f90b0"><path d="M 288 431 L 293 431 L 293 439 L 288 439 Z M 288 431 " clip-rule="nonzero"/></clipPath><clipPath id="a09fb69c16"><path d="M 84.585938 405.945312 L 760.050781 440.148438 L 725.414062 1124.199219 L 49.949219 1089.996094 Z M 84.585938 405.945312 " clip-rule="nonzero"/></clipPath><clipPath id="537b76420f"><path d="M 84.445312 405.789062 L 760.078125 440 L 739.445312 847.476562 L 63.8125 813.265625 Z M 84.445312 405.789062 " clip-rule="nonzero"/></clipPath><clipPath id="eafccdbf4f"><path d="M 83.734375 405 L 760.867188 439.289062 L 726.125 1125.410156 L 48.992188 1091.121094 Z M 83.734375 405 " clip-rule="nonzero"/></clipPath><clipPath id="e0b851d60b"><path d="M 311 430 L 316 430 L 316 437 L 311 437 Z M 311 430 " clip-rule="nonzero"/></clipPath><clipPath id="7203d59a73"><path d="M 84.585938 405.945312 L 760.050781 440.148438 L 725.414062 1124.199219 L 49.949219 1089.996094 Z M 84.585938 405.945312 " clip-rule="nonzero"/></clipPath><clipPath id="0d6a785273"><path d="M 84.445312 405.789062 L 760.078125 440 L 739.445312 847.476562 L 63.8125 813.265625 Z M 84.445312 405.789062 " clip-rule="nonzero"/></clipPath><clipPath id="f877ce8b20"><path d="M 83.734375 405 L 760.867188 439.289062 L 726.125 1125.410156 L 48.992188 1091.121094 Z M 83.734375 405 " clip-rule="nonzero"/></clipPath><clipPath id="f18eec935e"><path d="M 292 431 L 297 431 L 297 439 L 292 439 Z M 292 431 " clip-rule="nonzero"/></clipPath><clipPath id="fa4a27505f"><path d="M 84.585938 405.945312 L 760.050781 440.148438 L 725.414062 1124.199219 L 49.949219 1089.996094 Z M 84.585938 405.945312 " clip-rule="nonzero"/></clipPath><clipPath id="6f41636b45"><path d="M 84.445312 405.789062 L 760.078125 440 L 739.445312 847.476562 L 63.8125 813.265625 Z M 84.445312 405.789062 " clip-rule="nonzero"/></clipPath><clipPath id="826071fec7"><path d="M 83.734375 405 L 760.867188 439.289062 L 726.125 1125.410156 L 48.992188 1091.121094 Z M 83.734375 405 " clip-rule="nonzero"/></clipPath><clipPath id="0bc50abf3a"><path d="M 731 454 L 738 454 L 738 458 L 731 458 Z M 731 454 " clip-rule="nonzero"/></clipPath><clipPath id="016dc1d000"><path d="M 84.585938 405.945312 L 760.050781 440.148438 L 725.414062 1124.199219 L 49.949219 1089.996094 Z M 84.585938 405.945312 " clip-rule="nonzero"/></clipPath><clipPath id="9cc00b8305"><path d="M 84.445312 405.789062 L 760.078125 440 L 739.445312 847.476562 L 63.8125 813.265625 Z M 84.445312 405.789062 " clip-rule="nonzero"/></clipPath><clipPath id="2dde604340"><path d="M 83.734375 405 L 760.867188 439.289062 L 726.125 1125.410156 L 48.992188 1091.121094 Z M 83.734375 405 " clip-rule="nonzero"/></clipPath><clipPath id="bbe8dd4b60"><path d="M 91 459 L 94 459 L 94 470 L 91 470 Z M 91 459 " clip-rule="nonzero"/></clipPath><clipPath id="23903df32d"><path d="M 84.585938 405.945312 L 760.050781 440.148438 L 725.414062 1124.199219 L 49.949219 1089.996094 Z M 84.585938 405.945312 " clip-rule="nonzero"/></clipPath><clipPath id="3b6ff31268"><path d="M 84.445312 405.789062 L 760.078125 440 L 739.445312 847.476562 L 63.8125 813.265625 Z M 84.445312 405.789062 " clip-rule="nonzero"/></clipPath><clipPath id="c5eac43cad"><path d="M 83.734375 405 L 760.867188 439.289062 L 726.125 1125.410156 L 48.992188 1091.121094 Z M 83.734375 405 " clip-rule="nonzero"/></clipPath><clipPath id="9141b8d82e"><path d="M 299 434 L 305 434 L 305 439 L 299 439 Z M 299 434 " clip-rule="nonzero"/></clipPath><clipPath id="29ffecd8e3"><path d="M 84.585938 405.945312 L 760.050781 440.148438 L 725.414062 1124.199219 L 49.949219 1089.996094 Z M 84.585938 405.945312 " clip-rule="nonzero"/></clipPath><clipPath id="b0b5bb1cfb"><path d="M 84.445312 405.789062 L 760.078125 440 L 739.445312 847.476562 L 63.8125 813.265625 Z M 84.445312 405.789062 " clip-rule="nonzero"/></clipPath><clipPath id="2e5c20f08a"><path d="M 83.734375 405 L 760.867188 439.289062 L 726.125 1125.410156 L 48.992188 1091.121094 Z M 83.734375 405 " clip-rule="nonzero"/></clipPath><clipPath id="9bb050af4a"><path d="M 326 434 L 330 434 L 330 439 L 326 439 Z M 326 434 " clip-rule="nonzero"/></clipPath><clipPath id="f5a22dbf7b"><path d="M 84.585938 405.945312 L 760.050781 440.148438 L 725.414062 1124.199219 L 49.949219 1089.996094 Z M 84.585938 405.945312 " clip-rule="nonzero"/></clipPath><clipPath id="4015c34db6"><path d="M 84.445312 405.789062 L 760.078125 440 L 739.445312 847.476562 L 63.8125 813.265625 Z M 84.445312 405.789062 " clip-rule="nonzero"/></clipPath><clipPath id="3f2d657bf0"><path d="M 83.734375 405 L 760.867188 439.289062 L 726.125 1125.410156 L 48.992188 1091.121094 Z M 83.734375 405 " clip-rule="nonzero"/></clipPath><clipPath id="ecbedd861a"><path d="M 276 432 L 280 432 L 280 436 L 276 436 Z M 276 432 " clip-rule="nonzero"/></clipPath><clipPath id="d57c03fe1b"><path d="M 84.585938 405.945312 L 760.050781 440.148438 L 725.414062 1124.199219 L 49.949219 1089.996094 Z M 84.585938 405.945312 " clip-rule="nonzero"/></clipPath><clipPath id="fc092de6b1"><path d="M 84.445312 405.789062 L 760.078125 440 L 739.445312 847.476562 L 63.8125 813.265625 Z M 84.445312 405.789062 " clip-rule="nonzero"/></clipPath><clipPath id="5fcbcf015f"><path d="M 83.734375 405 L 760.867188 439.289062 L 726.125 1125.410156 L 48.992188 1091.121094 Z M 83.734375 405 " clip-rule="nonzero"/></clipPath><clipPath id="a359f5e9d0"><path d="M 319 432 L 324 432 L 324 438 L 319 438 Z M 319 432 " clip-rule="nonzero"/></clipPath><clipPath id="606f6574ed"><path d="M 84.585938 405.945312 L 760.050781 440.148438 L 725.414062 1124.199219 L 49.949219 1089.996094 Z M 84.585938 405.945312 " clip-rule="nonzero"/></clipPath><clipPath id="a9fa2cb367"><path d="M 84.445312 405.789062 L 760.078125 440 L 739.445312 847.476562 L 63.8125 813.265625 Z M 84.445312 405.789062 " clip-rule="nonzero"/></clipPath><clipPath id="9b213a5d33"><path d="M 83.734375 405 L 760.867188 439.289062 L 726.125 1125.410156 L 48.992188 1091.121094 Z M 83.734375 405 " clip-rule="nonzero"/></clipPath><clipPath id="a0c2e138e7"><path d="M 320 434 L 323 434 L 323 439 L 320 439 Z M 320 434 " clip-rule="nonzero"/></clipPath><clipPath id="f7d679d538"><path d="M 84.585938 405.945312 L 760.050781 440.148438 L 725.414062 1124.199219 L 49.949219 1089.996094 Z M 84.585938 405.945312 " clip-rule="nonzero"/></clipPath><clipPath id="43d3bb166c"><path d="M 84.445312 405.789062 L 760.078125 440 L 739.445312 847.476562 L 63.8125 813.265625 Z M 84.445312 405.789062 " clip-rule="nonzero"/></clipPath><clipPath id="22ebf3c9b3"><path d="M 83.734375 405 L 760.867188 439.289062 L 726.125 1125.410156 L 48.992188 1091.121094 Z M 83.734375 405 " clip-rule="nonzero"/></clipPath><clipPath id="eb574ae270"><path d="M 278 432 L 281 432 L 281 438 L 278 438 Z M 278 432 " clip-rule="nonzero"/></clipPath><clipPath id="9b0483ec5b"><path d="M 84.585938 405.945312 L 760.050781 440.148438 L 725.414062 1124.199219 L 49.949219 1089.996094 Z M 84.585938 405.945312 " clip-rule="nonzero"/></clipPath><clipPath id="8721bd711c"><path d="M 84.445312 405.789062 L 760.078125 440 L 739.445312 847.476562 L 63.8125 813.265625 Z M 84.445312 405.789062 " clip-rule="nonzero"/></clipPath><clipPath id="00cf72035b"><path d="M 83.734375 405 L 760.867188 439.289062 L 726.125 1125.410156 L 48.992188 1091.121094 Z M 83.734375 405 " clip-rule="nonzero"/></clipPath><clipPath id="e1b5c5f3bb"><path d="M 319 437 L 324 437 L 324 443 L 319 443 Z M 319 437 " clip-rule="nonzero"/></clipPath><clipPath id="67fb1c8ab1"><path d="M 84.585938 405.945312 L 760.050781 440.148438 L 725.414062 1124.199219 L 49.949219 1089.996094 Z M 84.585938 405.945312 " clip-rule="nonzero"/></clipPath><clipPath id="7fb2a69b1c"><path d="M 84.445312 405.789062 L 760.078125 440 L 739.445312 847.476562 L 63.8125 813.265625 Z M 84.445312 405.789062 " clip-rule="nonzero"/></clipPath><clipPath id="422fea2f48"><path d="M 83.734375 405 L 760.867188 439.289062 L 726.125 1125.410156 L 48.992188 1091.121094 Z M 83.734375 405 " clip-rule="nonzero"/></clipPath><clipPath id="38b37b1c00"><path d="M 276 430 L 281 430 L 281 436 L 276 436 Z M 276 430 " clip-rule="nonzero"/></clipPath><clipPath id="ee8dc885cf"><path d="M 84.585938 405.945312 L 760.050781 440.148438 L 725.414062 1124.199219 L 49.949219 1089.996094 Z M 84.585938 405.945312 " clip-rule="nonzero"/></clipPath><clipPath id="d67a609361"><path d="M 84.445312 405.789062 L 760.078125 440 L 739.445312 847.476562 L 63.8125 813.265625 Z M 84.445312 405.789062 " clip-rule="nonzero"/></clipPath><clipPath id="4262cffd31"><path d="M 83.734375 405 L 760.867188 439.289062 L 726.125 1125.410156 L 48.992188 1091.121094 Z M 83.734375 405 " clip-rule="nonzero"/></clipPath><clipPath id="61a6bfde92"><path d="M 274 430 L 278 430 L 278 437 L 274 437 Z M 274 430 " clip-rule="nonzero"/></clipPath><clipPath id="2c1b83a4dd"><path d="M 84.585938 405.945312 L 760.050781 440.148438 L 725.414062 1124.199219 L 49.949219 1089.996094 Z M 84.585938 405.945312 " clip-rule="nonzero"/></clipPath><clipPath id="c60a3a98a1"><path d="M 84.445312 405.789062 L 760.078125 440 L 739.445312 847.476562 L 63.8125 813.265625 Z M 84.445312 405.789062 " clip-rule="nonzero"/></clipPath><clipPath id="72cdff08b8"><path d="M 83.734375 405 L 760.867188 439.289062 L 726.125 1125.410156 L 48.992188 1091.121094 Z M 83.734375 405 " clip-rule="nonzero"/></clipPath><clipPath id="df72c4e100"><path d="M 299 432 L 305 432 L 305 435 L 299 435 Z M 299 432 " clip-rule="nonzero"/></clipPath><clipPath id="59637e92aa"><path d="M 84.585938 405.945312 L 760.050781 440.148438 L 725.414062 1124.199219 L 49.949219 1089.996094 Z M 84.585938 405.945312 " clip-rule="nonzero"/></clipPath><clipPath id="7bd92425a0"><path d="M 84.445312 405.789062 L 760.078125 440 L 739.445312 847.476562 L 63.8125 813.265625 Z M 84.445312 405.789062 " clip-rule="nonzero"/></clipPath><clipPath id="5aa82c4d17"><path d="M 83.734375 405 L 760.867188 439.289062 L 726.125 1125.410156 L 48.992188 1091.121094 Z M 83.734375 405 " clip-rule="nonzero"/></clipPath><clipPath id="9efb157ca4"><path d="M 93 466 L 99 466 L 99 469 L 93 469 Z M 93 466 " clip-rule="nonzero"/></clipPath><clipPath id="8589ed7d1e"><path d="M 84.585938 405.945312 L 760.050781 440.148438 L 725.414062 1124.199219 L 49.949219 1089.996094 Z M 84.585938 405.945312 " clip-rule="nonzero"/></clipPath><clipPath id="d435b59353"><path d="M 84.445312 405.789062 L 760.078125 440 L 739.445312 847.476562 L 63.8125 813.265625 Z M 84.445312 405.789062 " clip-rule="nonzero"/></clipPath><clipPath id="a1a51a2012"><path d="M 83.734375 405 L 760.867188 439.289062 L 726.125 1125.410156 L 48.992188 1091.121094 Z M 83.734375 405 " clip-rule="nonzero"/></clipPath><clipPath id="c4cc4376c7"><path d="M 282 431 L 286 431 L 286 438 L 282 438 Z M 282 431 " clip-rule="nonzero"/></clipPath><clipPath id="8d80b7d899"><path d="M 84.585938 405.945312 L 760.050781 440.148438 L 725.414062 1124.199219 L 49.949219 1089.996094 Z M 84.585938 405.945312 " clip-rule="nonzero"/></clipPath><clipPath id="f8ea8e4e58"><path d="M 84.445312 405.789062 L 760.078125 440 L 739.445312 847.476562 L 63.8125 813.265625 Z M 84.445312 405.789062 " clip-rule="nonzero"/></clipPath><clipPath id="b96d786109"><path d="M 83.734375 405 L 760.867188 439.289062 L 726.125 1125.410156 L 48.992188 1091.121094 Z M 83.734375 405 " clip-rule="nonzero"/></clipPath><clipPath id="982e14fd64"><path d="M 49 405 L 761 405 L 761 810 L 49 810 Z M 49 405 " clip-rule="nonzero"/></clipPath><clipPath id="df7185701f"><path d="M 83.734375 405 L 760.867188 439.289062 L 726.125 1125.410156 L 48.992188 1091.121094 Z M 83.734375 405 " clip-rule="nonzero"/></clipPath><clipPath id="32b6ef4783"><path d="M 83.734375 405 L 760.984375 439.292969 L 726.253906 1125.132812 L 49.003906 1090.839844 Z M 83.734375 405 " clip-rule="nonzero"/></clipPath></defs><g clip-path="url(#e087b3a734)"><g clip-path="url(#0194690dde)"><g clip-path="url(#5902f80952)"><g clip-path="url(#1207048d88)"><path fill="#262254" d="M 83.734375 405 C 307.1875 416.316406 530.640625 427.632812 760.867188 439.289062 C 749.402344 665.707031 737.9375 892.128906 726.125 1125.40625 C 502.667969 1114.09375 279.214844 1102.777344 48.992188 1091.121094 C 60.457031 864.703125 71.921875 638.28125 83.734375 405 Z M 83.734375 405 " fill-opacity="1" fill-rule="nonzero"/><path fill="#fefefe" d="M 83.734375 405 C 307.1875 416.316406 530.640625 427.632812 760.867188 439.289062 C 749.402344 665.707031 737.9375 892.128906 726.125 1125.40625 C 502.667969 1114.09375 279.214844 1102.777344 48.992188 1091.121094 C 60.457031 864.703125 71.921875 638.28125 83.734375 405 Z M 266.105469 470.839844 C 265.128906 472.566406 265.246094 474.097656 265.144531 476.078125 C 265.121094 476.5 265.097656 476.921875 265.074219 477.359375 C 265 478.792969 264.925781 480.226562 264.855469 481.660156 C 264.800781 482.699219 264.746094 483.734375 264.691406 484.769531 C 264.542969 487.640625 264.394531 490.511719 264.25 493.382812 C 264.089844 496.5 263.929688 499.613281 263.765625 502.730469 C 263.445312 508.917969 263.128906 515.105469 262.8125 521.296875 C 262.429688 528.703125 262.046875 536.113281 261.664062 543.519531 C 260.675781 562.707031 259.691406 581.890625 258.707031 601.078125 C 258.492188 605.308594 258.273438 609.539062 258.058594 613.769531 C 256.445312 645.242188 254.835938 676.71875 253.230469 708.191406 C 252.859375 715.488281 252.484375 722.789062 252.113281 730.085938 C 252.066406 731.003906 252.019531 731.921875 251.972656 732.835938 C 250.472656 762.265625 248.960938 791.695312 247.4375 821.125 C 246.347656 842.265625 245.253906 863.40625 244.175781 884.550781 C 244.15625 884.984375 244.132812 885.417969 244.109375 885.867188 C 243.625 895.410156 243.136719 904.949219 242.652344 914.492188 C 242.457031 918.328125 242.261719 922.167969 242.066406 926.007812 C 242.046875 926.425781 242.023438 926.847656 242.003906 927.28125 C 241.316406 940.824219 240.613281 954.363281 239.910156 967.90625 C 239.179688 981.921875 238.460938 995.941406 237.761719 1009.957031 C 237.355469 1018.042969 236.9375 1026.128906 236.507812 1034.214844 C 236.222656 1039.609375 235.949219 1045.003906 235.6875 1050.402344 C 235.539062 1053.480469 235.382812 1056.558594 235.210938 1059.636719 C 235.054688 1062.433594 234.914062 1065.230469 234.789062 1068.03125 C 234.742188 1069.039062 234.6875 1070.046875 234.625 1071.054688 C 234.082031 1077.050781 234.082031 1077.050781 236.316406 1082.429688 C 238.601562 1084.519531 239.460938 1084.84375 242.464844 1085 C 243.476562 1085.054688 243.476562 1085.054688 244.503906 1085.109375 C 245.25 1085.148438 245.996094 1085.183594 246.765625 1085.222656 C 247.554688 1085.265625 248.347656 1085.308594 249.160156 1085.351562 C 251.371094 1085.46875 253.582031 1085.582031 255.792969 1085.691406 C 258.191406 1085.816406 260.589844 1085.941406 262.988281 1086.066406 C 267.75 1086.316406 272.515625 1086.5625 277.28125 1086.808594 C 282.984375 1087.101562 288.6875 1087.398438 294.394531 1087.695312 C 308.835938 1088.445312 323.28125 1089.1875 337.726562 1089.929688 C 341.636719 1090.132812 345.546875 1090.332031 349.457031 1090.535156 C 373.71875 1091.78125 397.980469 1093.027344 422.242188 1094.265625 C 427.863281 1094.550781 433.488281 1094.839844 439.109375 1095.125 C 439.808594 1095.164062 440.507812 1095.199219 441.226562 1095.234375 C 463.886719 1096.390625 486.546875 1097.5625 509.203125 1098.742188 C 532.484375 1099.953125 555.765625 1101.152344 579.050781 1102.335938 C 582.335938 1102.503906 585.621094 1102.667969 588.910156 1102.835938 C 589.554688 1102.871094 590.203125 1102.902344 590.871094 1102.9375 C 601.292969 1103.46875 611.714844 1104.011719 622.136719 1104.558594 C 632.605469 1105.109375 643.078125 1105.644531 653.546875 1106.167969 C 659.773438 1106.476562 666 1106.800781 672.222656 1107.136719 C 676.378906 1107.359375 680.535156 1107.570312 684.6875 1107.765625 C 687.058594 1107.882812 689.429688 1108 691.796875 1108.136719 C 694.347656 1108.285156 696.898438 1108.402344 699.449219 1108.515625 C 700.1875 1108.5625 700.925781 1108.609375 701.6875 1108.65625 C 705.644531 1108.808594 708.027344 1108.589844 711.015625 1105.867188 C 712.722656 1103.929688 712.613281 1102.292969 712.746094 1099.757812 C 712.769531 1099.335938 712.789062 1098.910156 712.8125 1098.476562 C 712.890625 1097.042969 712.960938 1095.609375 713.03125 1094.171875 C 713.085938 1093.136719 713.140625 1092.101562 713.195312 1091.066406 C 713.347656 1088.195312 713.492188 1085.320312 713.640625 1082.449219 C 713.796875 1079.335938 713.960938 1076.21875 714.121094 1073.105469 C 714.445312 1066.917969 714.761719 1060.726562 715.078125 1054.539062 C 715.457031 1047.128906 715.839844 1039.722656 716.222656 1032.3125 C 717.214844 1013.128906 718.199219 993.941406 719.179688 974.757812 C 719.398438 970.527344 719.613281 966.296875 719.832031 962.0625 C 721.445312 930.589844 723.054688 899.117188 724.660156 867.644531 C 725.03125 860.34375 725.402344 853.046875 725.773438 845.746094 C 725.820312 844.832031 725.867188 843.914062 725.914062 843 C 727.414062 813.570312 728.929688 784.140625 730.449219 754.710938 C 731.542969 733.570312 732.632812 712.425781 733.710938 691.285156 C 733.734375 690.851562 733.757812 690.414062 733.78125 689.96875 C 734.265625 680.425781 734.75 670.886719 735.234375 661.34375 C 735.429688 657.503906 735.625 653.667969 735.820312 649.828125 C 735.84375 649.40625 735.863281 648.988281 735.886719 648.554688 C 736.574219 635.011719 737.273438 621.46875 737.980469 607.925781 C 738.710938 593.910156 739.425781 579.894531 740.128906 565.875 C 740.535156 557.789062 740.949219 549.703125 741.378906 541.621094 C 741.667969 536.222656 741.9375 530.828125 742.199219 525.433594 C 742.351562 522.355469 742.507812 519.277344 742.679688 516.199219 C 742.832031 513.402344 742.972656 510.605469 743.097656 507.804688 C 743.148438 506.796875 743.203125 505.789062 743.261719 504.78125 C 743.808594 498.78125 743.808594 498.78125 741.570312 493.40625 C 739.289062 491.316406 738.429688 490.988281 735.421875 490.832031 C 734.414062 490.78125 734.414062 490.78125 733.386719 490.722656 C 732.265625 490.667969 732.265625 490.667969 731.125 490.609375 C 729.9375 490.546875 729.9375 490.546875 728.730469 490.484375 C 726.519531 490.367188 724.308594 490.253906 722.097656 490.140625 C 719.699219 490.019531 717.300781 489.894531 714.902344 489.765625 C 710.136719 489.519531 705.371094 489.273438 700.609375 489.027344 C 694.902344 488.734375 689.199219 488.4375 683.496094 488.140625 C 669.050781 487.390625 654.609375 486.644531 640.164062 485.902344 C 636.253906 485.703125 632.34375 485.503906 628.433594 485.300781 C 604.171875 484.054688 579.910156 482.808594 555.648438 481.570312 C 550.027344 481.28125 544.402344 480.996094 538.777344 480.707031 C 538.082031 480.671875 537.382812 480.636719 536.660156 480.601562 C 514.003906 479.441406 491.34375 478.269531 468.6875 477.09375 C 445.402344 475.882812 422.121094 474.683594 398.839844 473.5 C 395.550781 473.332031 392.265625 473.164062 388.980469 472.996094 C 388.007812 472.949219 388.007812 472.949219 387.019531 472.898438 C 376.597656 472.367188 366.175781 471.824219 355.753906 471.277344 C 345.28125 470.726562 334.8125 470.191406 324.339844 469.667969 C 318.113281 469.355469 311.890625 469.035156 305.664062 468.699219 C 301.511719 468.476562 297.355469 468.265625 293.199219 468.066406 C 290.828125 467.953125 288.460938 467.832031 286.089844 467.699219 C 283.542969 467.550781 280.992188 467.433594 278.441406 467.320312 C 277.703125 467.273438 276.964844 467.226562 276.203125 467.175781 C 271.816406 467.007812 269.089844 467.457031 266.105469 470.839844 Z M 266.105469 470.839844 " fill-opacity="1" fill-rule="nonzero"/></g></g></g></g><g clip-path="url(#2dbaa1c87c)"><g clip-path="url(#71747f7c0d)"><g clip-path="url(#88f99eb135)"><g clip-path="url(#ae8285a623)"><path fill="#fefefe" d="M 252.804688 454.171875 C 253.402344 454.40625 254 454.636719 254.613281 454.878906 C 255.757812 454.992188 256.902344 455.070312 258.050781 455.128906 C 258.769531 455.167969 259.492188 455.207031 260.234375 455.246094 C 261.433594 455.304688 261.433594 455.304688 262.65625 455.363281 C 263.511719 455.40625 264.367188 455.449219 265.222656 455.496094 C 267.589844 455.617188 269.957031 455.734375 272.324219 455.855469 C 274.894531 455.980469 277.464844 456.113281 280.035156 456.246094 C 284.542969 456.476562 289.050781 456.703125 293.5625 456.933594 C 300.265625 457.269531 306.972656 457.609375 313.675781 457.949219 C 325.652344 458.5625 337.625 459.167969 349.597656 459.769531 C 360.078125 460.300781 370.554688 460.832031 381.035156 461.363281 C 382.074219 461.414062 382.074219 461.414062 383.136719 461.46875 C 385.957031 461.609375 388.773438 461.753906 391.589844 461.898438 C 418.039062 463.238281 444.492188 464.574219 470.941406 465.910156 C 494.457031 467.101562 517.972656 468.289062 541.488281 469.484375 C 567.886719 470.824219 594.285156 472.164062 620.6875 473.496094 C 623.5 473.640625 626.3125 473.78125 629.125 473.925781 C 629.816406 473.960938 630.511719 473.996094 631.222656 474.03125 C 641.695312 474.558594 652.167969 475.089844 662.644531 475.621094 C 674.546875 476.226562 686.453125 476.828125 698.359375 477.429688 C 705.027344 477.765625 711.699219 478.101562 718.367188 478.441406 C 722.816406 478.667969 727.265625 478.894531 731.710938 479.117188 C 734.25 479.242188 736.789062 479.371094 739.328125 479.503906 C 741.636719 479.621094 743.941406 479.738281 746.25 479.851562 C 747.472656 479.910156 748.699219 479.976562 749.925781 480.039062 C 750.648438 480.074219 751.375 480.109375 752.121094 480.148438 C 752.746094 480.179688 753.371094 480.210938 754.015625 480.242188 C 755.957031 480.296875 755.957031 480.296875 758.816406 479.792969 C 748.027344 692.847656 737.238281 905.898438 726.125 1125.40625 C 558.734375 1116.933594 391.347656 1108.457031 218.886719 1099.722656 C 229.664062 886.875 240.445312 674.023438 251.546875 454.722656 C 251.964844 454.539062 252.378906 454.359375 252.804688 454.171875 Z M 266.105469 470.839844 C 265.128906 472.566406 265.246094 474.097656 265.144531 476.078125 C 265.121094 476.5 265.097656 476.921875 265.074219 477.359375 C 265 478.792969 264.925781 480.226562 264.855469 481.660156 C 264.800781 482.699219 264.746094 483.734375 264.691406 484.769531 C 264.542969 487.640625 264.394531 490.511719 264.25 493.382812 C 264.089844 496.5 263.929688 499.613281 263.765625 502.730469 C 263.445312 508.917969 263.128906 515.105469 262.8125 521.296875 C 262.429688 528.703125 262.046875 536.113281 261.664062 543.519531 C 260.675781 562.707031 259.691406 581.890625 258.707031 601.078125 C 258.492188 605.308594 258.273438 609.539062 258.058594 613.769531 C 256.445312 645.242188 254.835938 676.71875 253.230469 708.191406 C 252.859375 715.488281 252.484375 722.789062 252.113281 730.085938 C 252.066406 731.003906 252.019531 731.921875 251.972656 732.835938 C 250.472656 762.265625 248.960938 791.695312 247.4375 821.125 C 246.347656 842.265625 245.253906 863.40625 244.175781 884.550781 C 244.15625 884.984375 244.132812 885.417969 244.109375 885.867188 C 243.625 895.410156 243.136719 904.949219 242.652344 914.492188 C 242.457031 918.328125 242.261719 922.167969 242.066406 926.007812 C 242.046875 926.425781 242.023438 926.847656 242.003906 927.28125 C 241.316406 940.824219 240.613281 954.363281 239.910156 967.90625 C 239.179688 981.921875 238.460938 995.941406 237.761719 1009.957031 C 237.355469 1018.042969 236.9375 1026.128906 236.507812 1034.214844 C 236.222656 1039.609375 235.949219 1045.003906 235.6875 1050.402344 C 235.539062 1053.480469 235.382812 1056.558594 235.210938 1059.636719 C 235.054688 1062.433594 234.914062 1065.230469 234.789062 1068.03125 C 234.742188 1069.039062 234.6875 1070.046875 234.625 1071.054688 C 234.082031 1077.050781 234.082031 1077.050781 236.316406 1082.429688 C 238.601562 1084.519531 239.460938 1084.84375 242.464844 1085 C 243.476562 1085.054688 243.476562 1085.054688 244.503906 1085.109375 C 245.25 1085.148438 245.996094 1085.183594 246.765625 1085.222656 C 247.554688 1085.265625 248.347656 1085.308594 249.160156 1085.351562 C 251.371094 1085.46875 253.582031 1085.582031 255.792969 1085.691406 C 258.191406 1085.816406 260.589844 1085.941406 262.988281 1086.066406 C 267.75 1086.316406 272.515625 1086.5625 277.28125 1086.808594 C 282.984375 1087.101562 288.6875 1087.398438 294.394531 1087.695312 C 308.835938 1088.445312 323.28125 1089.1875 337.726562 1089.929688 C 341.636719 1090.132812 345.546875 1090.332031 349.457031 1090.535156 C 373.71875 1091.78125 397.980469 1093.027344 422.242188 1094.265625 C 427.863281 1094.550781 433.488281 1094.839844 439.109375 1095.125 C 439.808594 1095.164062 440.507812 1095.199219 441.226562 1095.234375 C 463.886719 1096.390625 486.546875 1097.5625 509.203125 1098.742188 C 532.484375 1099.953125 555.765625 1101.152344 579.050781 1102.335938 C 582.335938 1102.503906 585.621094 1102.667969 588.910156 1102.835938 C 589.554688 1102.871094 590.203125 1102.902344 590.871094 1102.9375 C 601.292969 1103.46875 611.714844 1104.011719 622.136719 1104.558594 C 632.605469 1105.109375 643.078125 1105.644531 653.546875 1106.167969 C 659.773438 1106.476562 666 1106.800781 672.222656 1107.136719 C 676.378906 1107.359375 680.535156 1107.570312 684.6875 1107.765625 C 687.058594 1107.882812 689.429688 1108 691.796875 1108.136719 C 694.347656 1108.285156 696.898438 1108.402344 699.449219 1108.515625 C 700.1875 1108.5625 700.925781 1108.609375 701.6875 1108.65625 C 705.644531 1108.808594 708.027344 1108.589844 711.015625 1105.867188 C 712.722656 1103.929688 712.613281 1102.292969 712.746094 1099.757812 C 712.769531 1099.335938 712.789062 1098.910156 712.8125 1098.476562 C 712.890625 1097.042969 712.960938 1095.609375 713.03125 1094.171875 C 713.085938 1093.136719 713.140625 1092.101562 713.195312 1091.066406 C 713.347656 1088.195312 713.492188 1085.320312 713.640625 1082.449219 C 713.796875 1079.335938 713.960938 1076.21875 714.121094 1073.105469 C 714.445312 1066.917969 714.761719 1060.726562 715.078125 1054.539062 C 715.457031 1047.128906 715.839844 1039.722656 716.222656 1032.3125 C 717.214844 1013.128906 718.199219 993.941406 719.179688 974.757812 C 719.398438 970.527344 719.613281 966.296875 719.832031 962.0625 C 721.445312 930.589844 723.054688 899.117188 724.660156 867.644531 C 725.03125 860.34375 725.402344 853.046875 725.773438 845.746094 C 725.820312 844.832031 725.867188 843.914062 725.914062 843 C 727.414062 813.570312 728.929688 784.140625 730.449219 754.710938 C 731.542969 733.570312 732.632812 712.425781 733.710938 691.285156 C 733.734375 690.851562 733.757812 690.414062 733.78125 689.96875 C 734.265625 680.425781 734.75 670.886719 735.234375 661.34375 C 735.429688 657.503906 735.625 653.667969 735.820312 649.828125 C 735.84375 649.40625 735.863281 648.988281 735.886719 648.554688 C 736.574219 635.011719 737.273438 621.46875 737.980469 607.925781 C 738.710938 593.910156 739.425781 579.894531 740.128906 565.875 C 740.535156 557.789062 740.949219 549.703125 741.378906 541.621094 C 741.667969 536.222656 741.9375 530.828125 742.199219 525.433594 C 742.351562 522.355469 742.507812 519.277344 742.679688 516.199219 C 742.832031 513.402344 742.972656 510.605469 743.097656 507.804688 C 743.148438 506.796875 743.203125 505.789062 743.261719 504.78125 C 743.808594 498.78125 743.808594 498.78125 741.570312 493.40625 C 739.289062 491.316406 738.429688 490.988281 735.421875 490.832031 C 734.414062 490.78125 734.414062 490.78125 733.386719 490.722656 C 732.265625 490.667969 732.265625 490.667969 731.125 490.609375 C 729.9375 490.546875 729.9375 490.546875 728.730469 490.484375 C 726.519531 490.367188 724.308594 490.253906 722.097656 490.140625 C 719.699219 490.019531 717.300781 489.894531 714.902344 489.765625 C 710.136719 489.519531 705.371094 489.273438 700.609375 489.027344 C 694.902344 488.734375 689.199219 488.4375 683.496094 488.140625 C 669.050781 487.390625 654.609375 486.644531 640.164062 485.902344 C 636.253906 485.703125 632.34375 485.503906 628.433594 485.300781 C 604.171875 484.054688 579.910156 482.808594 555.648438 481.570312 C 550.027344 481.28125 544.402344 480.996094 538.777344 480.707031 C 538.082031 480.671875 537.382812 480.636719 536.660156 480.601562 C 514.003906 479.441406 491.34375 478.269531 468.6875 477.09375 C 445.402344 475.882812 422.121094 474.683594 398.839844 473.5 C 395.550781 473.332031 392.265625 473.164062 388.980469 472.996094 C 388.007812 472.949219 388.007812 472.949219 387.019531 472.898438 C 376.597656 472.367188 366.175781 471.824219 355.753906 471.277344 C 345.28125 470.726562 334.8125 470.191406 324.339844 469.667969 C 318.113281 469.355469 311.890625 469.035156 305.664062 468.699219 C 301.511719 468.476562 297.355469 468.265625 293.199219 468.066406 C 290.828125 467.953125 288.460938 467.832031 286.089844 467.699219 C 283.542969 467.550781 280.992188 467.433594 278.441406 467.320312 C 277.703125 467.273438 276.964844 467.226562 276.203125 467.175781 C 271.816406 467.007812 269.089844 467.457031 266.105469 470.839844 Z M 266.105469 470.839844 " fill-opacity="1" fill-rule="nonzero"/></g></g></g></g><g clip-path="url(#af7d0a0df4)"><g clip-path="url(#556b037432)"><g clip-path="url(#f90ec8d763)"><g clip-path="url(#f58f97e0c2)"><path fill="#262254" d="M 253.628906 413.605469 C 421.019531 422.082031 588.40625 430.554688 760.867188 439.289062 C 760.230469 451.84375 759.59375 464.402344 758.9375 477.339844 C 591.550781 468.863281 424.164062 460.386719 251.703125 451.652344 C 252.339844 439.097656 252.976562 426.542969 253.628906 413.605469 Z M 253.628906 413.605469 " fill-opacity="1" fill-rule="nonzero"/></g></g></g></g><g clip-path="url(#ef4c2d28e2)"><g clip-path="url(#328e630eba)"><g clip-path="url(#2a77176fc4)"><g clip-path="url(#6ad059d36c)"><path fill="#fefefe" d="M 83.734375 405 C 139.800781 407.839844 195.867188 410.679688 253.628906 413.605469 C 252.996094 426.160156 252.359375 438.71875 251.703125 451.652344 C 419.089844 460.128906 586.480469 468.605469 758.9375 477.339844 C 758.6875 478.339844 758.433594 479.34375 758.171875 480.375 C 756.113281 480.882812 754.277344 480.871094 752.167969 480.765625 C 751.082031 480.710938 751.082031 480.710938 749.976562 480.660156 C 748.78125 480.597656 748.78125 480.597656 747.5625 480.53125 C 746.707031 480.488281 745.851562 480.445312 744.992188 480.40625 C 742.625 480.285156 740.261719 480.164062 737.894531 480.042969 C 735.324219 479.910156 732.753906 479.785156 730.183594 479.65625 C 725.675781 479.429688 721.167969 479.199219 716.65625 478.972656 C 709.953125 478.628906 703.25 478.289062 696.546875 477.953125 C 684.574219 477.351562 672.601562 476.742188 660.628906 476.136719 C 650.152344 475.605469 639.675781 475.074219 629.199219 474.542969 C 628.160156 474.492188 628.160156 474.492188 627.097656 474.4375 C 624.277344 474.292969 621.460938 474.152344 618.644531 474.007812 C 592.199219 472.671875 565.75 471.332031 539.304688 469.988281 C 515.792969 468.796875 492.28125 467.605469 468.769531 466.417969 C 442.375 465.085938 415.976562 463.75 389.582031 462.410156 C 386.769531 462.269531 383.957031 462.125 381.144531 461.984375 C 380.105469 461.929688 380.105469 461.929688 379.046875 461.875 C 368.574219 461.34375 358.101562 460.816406 347.628906 460.285156 C 335.726562 459.6875 323.824219 459.082031 311.921875 458.476562 C 305.253906 458.136719 298.585938 457.800781 291.917969 457.464844 C 287.472656 457.242188 283.023438 457.015625 278.574219 456.785156 C 276.039062 456.65625 273.5 456.527344 270.960938 456.402344 C 268.65625 456.285156 266.347656 456.167969 264.042969 456.050781 C 262.816406 455.984375 261.589844 455.925781 260.367188 455.867188 C 259.28125 455.808594 259.28125 455.808594 258.171875 455.75 C 257.546875 455.71875 256.921875 455.6875 256.277344 455.65625 C 254.582031 455.492188 254.582031 455.492188 251.546875 454.722656 C 240.769531 667.574219 229.992188 880.421875 218.886719 1099.722656 C 218.683594 1099.714844 218.484375 1099.703125 218.273438 1099.691406 C 229.09375 886.03125 239.914062 672.371094 251.058594 452.238281 C 195.195312 449.40625 139.332031 446.578125 81.777344 443.664062 C 82.421875 430.90625 83.066406 418.148438 83.734375 405 Z M 83.734375 405 " fill-opacity="1" fill-rule="nonzero"/></g></g></g></g><g clip-path="url(#0cefb3b5b3)"><g clip-path="url(#fe76a3e547)"><g clip-path="url(#d10475ae17)"><g clip-path="url(#d412d24b93)"><path fill="#d6d6d6" d="M 253.015625 413.574219 C 253.21875 413.582031 253.421875 413.59375 253.628906 413.605469 C 252.996094 426.160156 252.359375 438.71875 251.703125 451.652344 C 419.089844 460.128906 586.480469 468.605469 758.9375 477.339844 C 758.6875 478.339844 758.433594 479.34375 758.171875 480.375 C 756.113281 480.882812 754.277344 480.871094 752.167969 480.765625 C 751.082031 480.710938 751.082031 480.710938 749.976562 480.660156 C 748.78125 480.59375 748.78125 480.59375 747.5625 480.53125 C 746.707031 480.488281 745.851562 480.445312 744.992188 480.40625 C 742.625 480.285156 740.261719 480.164062 737.894531 480.042969 C 735.324219 479.910156 732.753906 479.785156 730.183594 479.65625 C 725.675781 479.429688 721.167969 479.199219 716.65625 478.972656 C 709.953125 478.628906 703.25 478.289062 696.546875 477.953125 C 684.574219 477.351562 672.601562 476.742188 660.628906 476.136719 C 650.152344 475.605469 639.675781 475.074219 629.199219 474.542969 C 628.160156 474.492188 628.160156 474.492188 627.097656 474.4375 C 624.277344 474.292969 621.460938 474.152344 618.644531 474.007812 C 592.199219 472.671875 565.75 471.332031 539.304688 469.988281 C 515.792969 468.796875 492.28125 467.605469 468.769531 466.417969 C 442.375 465.085938 415.976562 463.75 389.582031 462.410156 C 386.769531 462.269531 383.957031 462.125 381.144531 461.984375 C 380.105469 461.929688 380.105469 461.929688 379.046875 461.875 C 368.574219 461.34375 358.101562 460.816406 347.628906 460.285156 C 335.726562 459.6875 323.824219 459.082031 311.921875 458.476562 C 305.253906 458.136719 298.585938 457.800781 291.917969 457.464844 C 287.472656 457.242188 283.023438 457.015625 278.574219 456.785156 C 276.039062 456.65625 273.5 456.527344 270.960938 456.402344 C 268.65625 456.285156 266.347656 456.167969 264.042969 456.050781 C 262.816406 455.984375 261.589844 455.925781 260.367188 455.867188 C 259.28125 455.808594 259.28125 455.808594 258.171875 455.75 C 257.546875 455.71875 256.921875 455.6875 256.277344 455.65625 C 254.582031 455.492188 254.582031 455.492188 251.546875 454.722656 C 240.769531 667.574219 229.992188 880.421875 218.886719 1099.722656 C 218.683594 1099.714844 218.484375 1099.703125 218.273438 1099.691406 C 229.09375 886.03125 239.914062 672.371094 251.058594 452.238281 C 195.195312 449.40625 139.332031 446.578125 81.777344 443.664062 C 81.785156 443.460938 81.796875 443.261719 81.808594 443.050781 C 137.671875 445.878906 193.535156 448.707031 251.089844 451.625 C 251.726562 439.066406 252.363281 426.511719 253.015625 413.574219 Z M 253.015625 413.574219 " fill-opacity="1" fill-rule="nonzero"/></g></g></g></g><g clip-path="url(#9c0d1dd080)"><g clip-path="url(#61e27f90eb)"><g clip-path="url(#7ad307e085)"><g clip-path="url(#2964672523)"><path fill="#f4f4f6" d="M 490.535156 750.464844 C 490.9375 750.488281 491.34375 750.507812 491.761719 750.527344 C 493.71875 755.90625 495.679688 761.285156 497.699219 766.824219 C 503.539062 767.730469 509.375 768.636719 515.394531 769.566406 C 515.371094 769.972656 515.351562 770.378906 515.332031 770.796875 C 514.320312 771.613281 513.273438 772.386719 512.214844 773.136719 C 511.265625 773.832031 511.265625 773.832031 510.296875 774.542969 C 509.007812 775.472656 507.699219 776.378906 506.378906 777.257812 C 503.1875 779.34375 503.1875 779.34375 501.644531 782.613281 C 501.882812 784.273438 502.316406 785.78125 502.808594 787.390625 C 503.085938 788.78125 503.347656 790.179688 503.59375 791.582031 C 503.722656 792.230469 503.847656 792.882812 503.980469 793.554688 C 504.246094 795.476562 504.21875 797.210938 504.054688 799.140625 C 498.136719 795.613281 498.136719 795.613281 495.449219 793.628906 C 495.113281 793.382812 494.773438 793.136719 494.425781 792.882812 C 493.457031 792.171875 492.496094 791.445312 491.535156 790.722656 C 489.867188 789.605469 489.867188 789.605469 488.285156 790.183594 C 486.664062 790.867188 485.152344 791.625 483.613281 792.480469 C 482.78125 792.9375 482.78125 792.9375 481.933594 793.402344 C 480.769531 794.042969 479.609375 794.6875 478.449219 795.335938 C 477.894531 795.636719 477.34375 795.9375 476.773438 796.25 C 476.269531 796.527344 475.769531 796.808594 475.25 797.09375 C 474.632812 797.355469 474.632812 797.355469 474.003906 797.621094 C 473.609375 797.398438 473.214844 797.175781 472.808594 796.945312 C 472.949219 796.480469 473.089844 796.015625 473.238281 795.535156 C 473.875 793.433594 474.496094 791.324219 475.121094 789.21875 C 475.34375 788.484375 475.566406 787.753906 475.796875 787 C 476.003906 786.296875 476.207031 785.59375 476.421875 784.871094 C 476.613281 784.222656 476.808594 783.574219 477.007812 782.90625 C 477.328125 780.976562 477.21875 780.292969 476.191406 778.65625 C 475.371094 777.675781 475.371094 777.675781 474.390625 776.796875 C 473.859375 776.300781 473.859375 776.300781 473.320312 775.792969 C 472.949219 775.453125 472.582031 775.113281 472.199219 774.765625 C 471.839844 774.425781 471.476562 774.085938 471.101562 773.738281 C 469.507812 772.25 467.90625 770.796875 466.238281 769.386719 C 465.644531 768.824219 465.644531 768.824219 465.035156 768.25 C 465.058594 767.84375 465.078125 767.4375 465.097656 767.019531 C 465.550781 767.011719 466.003906 767 466.472656 766.988281 C 468.527344 766.9375 470.585938 766.882812 472.640625 766.824219 C 473.355469 766.808594 474.066406 766.792969 474.804688 766.773438 C 475.488281 766.753906 476.175781 766.734375 476.882812 766.714844 C 477.832031 766.691406 477.832031 766.691406 478.800781 766.667969 C 479.636719 766.617188 479.636719 766.617188 480.496094 766.570312 C 480.941406 766.558594 481.386719 766.546875 481.84375 766.53125 C 483.695312 765.792969 484.054688 764.378906 484.875 762.617188 C 485.207031 761.914062 485.539062 761.210938 485.882812 760.488281 C 486.226562 759.738281 486.570312 758.992188 486.910156 758.242188 C 487.261719 757.492188 487.617188 756.742188 487.96875 755.992188 C 488.832031 754.152344 489.6875 752.3125 490.535156 750.464844 Z M 490.535156 750.464844 " fill-opacity="1" fill-rule="nonzero"/></g></g></g></g><g clip-path="url(#7ecc1c2bd8)"><g clip-path="url(#21f7dc7417)"><g clip-path="url(#2af69279cf)"><g clip-path="url(#47fbc4664b)"><path fill="#2a2657" d="M 490.003906 760.898438 C 490.410156 760.917969 490.816406 760.941406 491.230469 760.960938 C 491.34375 761.613281 491.457031 762.261719 491.570312 762.933594 C 492.164062 765.589844 492.746094 768.171875 494.445312 770.351562 C 497.550781 772.15625 501.265625 772.414062 504.78125 772.722656 C 501.238281 776.636719 501.238281 776.636719 499.023438 777.851562 C 497.5625 778.980469 497.5625 778.980469 497.546875 780.46875 C 497.621094 782.09375 497.789062 783.683594 497.992188 785.300781 C 498.066406 786.25 498.132812 787.203125 498.195312 788.15625 C 498.25 788.84375 498.300781 789.53125 498.359375 790.238281 C 497.410156 789.71875 496.460938 789.199219 495.515625 788.671875 C 494.988281 788.382812 494.460938 788.089844 493.917969 787.792969 C 492.378906 786.859375 492.378906 786.859375 491.199219 785.699219 C 490.808594 785.433594 490.421875 785.167969 490.019531 784.894531 C 488.46875 785.152344 488.46875 785.152344 486.890625 785.96875 C 486.289062 786.242188 485.6875 786.519531 485.070312 786.804688 C 484.460938 787.101562 483.855469 787.398438 483.230469 787.703125 C 482.613281 788.003906 482 788.304688 481.363281 788.613281 C 480.898438 788.84375 480.4375 789.074219 479.957031 789.308594 C 480.554688 785.648438 481.148438 781.984375 481.742188 778.324219 C 481.15625 777.886719 480.570312 777.453125 479.964844 777.003906 C 479.988281 776.597656 480.007812 776.191406 480.027344 775.777344 C 479.683594 775.59375 479.335938 775.410156 478.980469 775.222656 C 477.605469 774.402344 476.4375 773.5625 475.277344 772.457031 C 475.296875 772.054688 475.316406 771.648438 475.339844 771.230469 C 477.71875 770.796875 479.898438 770.78125 482.308594 770.929688 C 483.292969 770.988281 483.292969 770.988281 484.296875 771.046875 C 484.792969 771.078125 485.285156 771.113281 485.796875 771.144531 C 485.882812 770.828125 485.964844 770.511719 486.054688 770.1875 C 486.679688 768.28125 487.492188 766.488281 488.316406 764.660156 C 488.632812 763.953125 488.945312 763.25 489.273438 762.523438 C 489.515625 761.988281 489.753906 761.453125 490.003906 760.898438 Z M 490.003906 760.898438 " fill-opacity="1" fill-rule="nonzero"/></g></g></g></g><g clip-path="url(#95bf6feda0)"><g clip-path="url(#1abbe0db47)"><g clip-path="url(#c52858889d)"><g clip-path="url(#aee4e2d3b9)"><path fill="#fdfdfd" d="M 94.367188 458.371094 C 95.039062 458.40625 95.707031 458.441406 96.398438 458.480469 C 97.070312 458.511719 97.738281 458.542969 98.429688 458.578125 C 100.074219 458.742188 100.074219 458.742188 100.65625 459.386719 C 100.613281 461.148438 100.535156 462.890625 100.429688 464.644531 C 100.402344 465.140625 100.375 465.632812 100.34375 466.144531 C 100.277344 467.371094 100.203125 468.59375 100.128906 469.820312 C 99.40625 469.554688 98.683594 469.289062 97.941406 469.015625 C 95.5 468.257812 93.957031 468.441406 91.542969 469.386719 C 91.613281 467.660156 91.6875 465.933594 91.765625 464.207031 C 91.785156 463.710938 91.804688 463.21875 91.824219 462.710938 C 91.882812 461.457031 91.976562 460.203125 92.070312 458.953125 C 92.714844 458.371094 92.714844 458.371094 94.367188 458.371094 Z M 94.367188 458.371094 " fill-opacity="1" fill-rule="nonzero"/></g></g></g></g><g clip-path="url(#98e20c8a51)"><g clip-path="url(#6a0881fa3c)"><g clip-path="url(#fe8aaf2863)"><g clip-path="url(#2ab7bc3b50)"><path fill="#e2e1e8" d="M 325.195312 433.226562 C 328.917969 433.292969 328.917969 433.292969 330.105469 433.472656 C 331.269531 434.761719 331.269531 434.761719 331.3125 436.917969 C 331.050781 439.058594 331.050781 439.058594 329.761719 440.226562 C 328.148438 440.21875 328.148438 440.21875 326.695312 440.070312 C 326.652344 440.878906 326.613281 441.691406 326.570312 442.523438 C 325.964844 442.492188 325.355469 442.460938 324.730469 442.429688 C 324.882812 439.394531 325.039062 436.355469 325.195312 433.226562 Z M 325.195312 433.226562 " fill-opacity="1" fill-rule="nonzero"/></g></g></g></g><g clip-path="url(#e9d84558c1)"><g clip-path="url(#7f4a690ecd)"><g clip-path="url(#ed8bda400c)"><g clip-path="url(#dd7ca95701)"><path fill="#787878" d="M 94.367188 458.371094 C 95.039062 458.40625 95.707031 458.441406 96.398438 458.480469 C 97.070312 458.511719 97.738281 458.542969 98.429688 458.578125 C 100.074219 458.742188 100.074219 458.742188 100.65625 459.386719 C 100.613281 461.148438 100.535156 462.890625 100.429688 464.644531 C 100.402344 465.140625 100.375 465.632812 100.34375 466.144531 C 100.277344 467.371094 100.203125 468.59375 100.128906 469.820312 C 99.40625 469.554688 98.683594 469.289062 97.941406 469.015625 C 95.5 468.257812 93.957031 468.441406 91.542969 469.386719 C 91.613281 467.660156 91.6875 465.933594 91.765625 464.207031 C 91.785156 463.710938 91.804688 463.21875 91.824219 462.710938 C 91.882812 461.457031 91.976562 460.203125 92.070312 458.953125 C 92.714844 458.371094 92.714844 458.371094 94.367188 458.371094 Z M 93.265625 459.628906 C 93.132812 462.261719 93 464.894531 92.863281 467.605469 C 94.085938 467.464844 95.3125 467.324219 96.574219 467.179688 C 97.371094 467.421875 98.171875 467.667969 98.996094 467.917969 C 99.128906 465.285156 99.261719 462.652344 99.398438 459.9375 C 97.375 459.835938 95.351562 459.734375 93.265625 459.628906 Z M 93.265625 459.628906 " fill-opacity="1" fill-rule="nonzero"/></g></g></g></g><g clip-path="url(#92323bc731)"><g clip-path="url(#6dd08ac55a)"><g clip-path="url(#a9416316e0)"><g clip-path="url(#00776153be)"><path fill="#e9e9ee" d="M 313.023438 430.761719 C 314.160156 430.917969 314.160156 430.917969 315.445312 431.5 C 316.144531 433.035156 316.144531 433.035156 316.65625 434.910156 C 316.832031 435.527344 317.007812 436.144531 317.1875 436.777344 C 317.558594 438.375 317.558594 438.375 317.496094 439.605469 C 316.695312 439.359375 315.894531 439.117188 315.074219 438.867188 C 315.09375 438.460938 315.113281 438.054688 315.132812 437.636719 C 313.605469 437.773438 313.605469 437.773438 312.035156 438.097656 C 311.8125 438.492188 311.589844 438.886719 311.363281 439.292969 C 310.753906 439.261719 310.148438 439.230469 309.519531 439.199219 C 310.082031 436.109375 311.566406 433.507812 313.023438 430.761719 Z M 313.023438 430.761719 " fill-opacity="1" fill-rule="nonzero"/></g></g></g></g><g clip-path="url(#47f1396844)"><g clip-path="url(#da3f755c70)"><g clip-path="url(#2d915ffb41)"><g clip-path="url(#f977d9c92c)"><path fill="#f0f0f3" d="M 277.976562 430.679688 C 279.808594 430.925781 279.808594 430.925781 280.972656 432.21875 C 281.019531 434.371094 281.019531 434.371094 280.757812 436.511719 C 279.46875 437.679688 279.46875 437.679688 277.621094 437.738281 C 275.789062 437.492188 275.789062 437.492188 274.621094 436.203125 C 274.578125 434.046875 274.578125 434.046875 274.839844 431.90625 C 276.128906 430.742188 276.128906 430.742188 277.976562 430.679688 Z M 277.976562 430.679688 " fill-opacity="1" fill-rule="nonzero"/></g></g></g></g><g clip-path="url(#26eb380fc3)"><g clip-path="url(#b6637cfed9)"><g clip-path="url(#c1856d1b93)"><g clip-path="url(#b6a64857b0)"><path fill="#f4f4f6" d="M 301.277344 432.015625 C 303.164062 431.957031 303.164062 431.957031 304.957031 432.199219 C 305.539062 432.84375 305.539062 432.84375 305.527344 434.25 C 305.492188 434.8125 305.457031 435.375 305.417969 435.953125 C 305.386719 436.519531 305.351562 437.082031 305.316406 437.664062 C 305.289062 438.097656 305.257812 438.535156 305.226562 438.984375 C 301.085938 438.851562 301.085938 438.851562 299.738281 438.089844 C 299.992188 437.085938 300.246094 436.085938 300.507812 435.050781 C 301.53125 434.902344 302.550781 434.75 303.605469 434.59375 C 303.625 434.1875 303.644531 433.785156 303.667969 433.367188 C 302.441406 433.507812 301.21875 433.648438 299.957031 433.792969 C 300.390625 433.207031 300.828125 432.621094 301.277344 432.015625 Z M 301.277344 432.015625 " fill-opacity="1" fill-rule="nonzero"/></g></g></g></g><g clip-path="url(#0802623823)"><g clip-path="url(#be1d8d5dd3)"><g clip-path="url(#62fe4fa34f)"><g clip-path="url(#ca0c1746f8)"><path fill="#d5d4de" d="M 293.304688 431.609375 C 297.023438 431.679688 297.023438 431.679688 298.210938 431.859375 C 299.375 433.148438 299.375 433.148438 299.425781 434.484375 C 299.386719 434.980469 299.347656 435.476562 299.308594 435.992188 C 299.269531 436.492188 299.234375 436.992188 299.195312 437.507812 C 299.144531 438.085938 299.144531 438.085938 299.09375 438.671875 C 298.285156 438.632812 297.476562 438.589844 296.640625 438.546875 C 296.734375 436.726562 296.824219 434.902344 296.921875 433.023438 C 296.296875 433.296875 296.296875 433.296875 295.664062 433.574219 C 295.320312 434.726562 295.320312 434.726562 295.152344 436.050781 C 295.039062 436.84375 294.921875 437.636719 294.800781 438.453125 C 294.195312 438.421875 293.585938 438.394531 292.960938 438.363281 C 293.074219 436.132812 293.1875 433.90625 293.304688 431.609375 Z M 293.304688 431.609375 " fill-opacity="1" fill-rule="nonzero"/></g></g></g></g><g clip-path="url(#35be64846c)"><g clip-path="url(#a00784f874)"><g clip-path="url(#2dc78a1cb9)"><g clip-path="url(#db6f9989bb)"><path fill="#ebebef" d="M 282.261719 431.050781 C 282.871094 431.082031 283.476562 431.113281 284.101562 431.144531 C 284.011719 432.96875 283.917969 434.789062 283.824219 436.667969 C 284.238281 436.484375 284.652344 436.304688 285.082031 436.117188 C 285.425781 434.96875 285.425781 434.96875 285.589844 433.644531 C 285.707031 432.847656 285.824219 432.054688 285.941406 431.238281 C 286.550781 431.269531 287.15625 431.300781 287.78125 431.332031 C 287.671875 433.558594 287.558594 435.785156 287.441406 438.082031 C 283.664062 437.949219 283.664062 437.949219 282.535156 437.832031 C 281.953125 437.1875 281.953125 437.1875 281.964844 435.785156 C 282 435.222656 282.035156 434.660156 282.070312 434.078125 C 282.105469 433.515625 282.140625 432.953125 282.175781 432.371094 C 282.203125 431.9375 282.234375 431.5 282.261719 431.050781 Z M 282.261719 431.050781 " fill-opacity="1" fill-rule="nonzero"/></g></g></g></g><g clip-path="url(#319b4fd4fd)"><g clip-path="url(#313d33be69)"><g clip-path="url(#bcac35836f)"><g clip-path="url(#86d32e2572)"><path fill="#f8f8f9" d="M 318.449219 432.882812 C 320.070312 432.964844 321.6875 433.046875 323.355469 433.132812 C 323.113281 433.933594 322.871094 434.730469 322.617188 435.554688 C 321.828125 435.109375 321.039062 434.664062 320.226562 434.203125 C 320.15625 435.621094 320.085938 437.039062 320.011719 438.5 C 321.042969 438.148438 322.074219 437.792969 323.140625 437.429688 C 323.097656 438.238281 323.058594 439.046875 323.015625 439.882812 C 322.003906 439.832031 320.992188 439.78125 319.949219 439.726562 C 319.90625 440.539062 319.867188 441.347656 319.824219 442.183594 C 319.214844 442.152344 318.609375 442.121094 317.984375 442.089844 C 318.136719 439.050781 318.292969 436.015625 318.449219 432.882812 Z M 318.449219 432.882812 " fill-opacity="1" fill-rule="nonzero"/></g></g></g></g><g clip-path="url(#c8657bfe71)"><g clip-path="url(#cbdbb362b3)"><g clip-path="url(#f562ca5704)"><g clip-path="url(#3983b8dd19)"><path fill="#625756" d="M 105.621094 422.105469 C 107.425781 422.503906 107.425781 422.503906 109.269531 422.90625 C 109.164062 424.933594 109.0625 426.957031 108.957031 429.042969 C 105.425781 428.941406 105.425781 428.941406 104.082031 428.183594 C 104.132812 427.167969 104.183594 426.15625 104.238281 425.113281 C 105.460938 424.972656 106.6875 424.832031 107.949219 424.6875 C 107.96875 424.28125 107.988281 423.875 108.011719 423.457031 C 106.785156 423.601562 105.5625 423.742188 104.300781 423.886719 C 104.734375 423.300781 105.171875 422.710938 105.621094 422.105469 Z M 105.621094 422.105469 " fill-opacity="1" fill-rule="nonzero"/></g></g></g></g><g clip-path="url(#7aa5369a98)"><g clip-path="url(#1d0822edc5)"><g clip-path="url(#eb5daace1d)"><g clip-path="url(#c0672d7c5f)"><path fill="#3b3743" d="M 96.511719 419.800781 C 97.121094 419.832031 97.726562 419.863281 98.351562 419.894531 C 98.714844 420.722656 99.082031 421.554688 99.453125 422.410156 C 100.101562 421.628906 100.75 420.851562 101.417969 420.046875 C 102.015625 420.28125 102.613281 420.515625 103.226562 420.753906 C 102.875 421.183594 102.527344 421.609375 102.164062 422.046875 C 101.023438 423.664062 101.023438 423.664062 101.609375 425.363281 C 101.839844 425.859375 102.070312 426.351562 102.304688 426.863281 C 102.476562 427.480469 102.648438 428.097656 102.824219 428.734375 C 102.21875 428.703125 101.609375 428.671875 100.984375 428.640625 C 100.011719 427.359375 100.011719 427.359375 99.269531 426.09375 C 98.820312 426.679688 98.820312 426.679688 98.363281 427.277344 C 98.011719 427.664062 97.664062 428.054688 97.304688 428.453125 C 96.898438 428.433594 96.496094 428.414062 96.078125 428.390625 C 96.289062 427.933594 96.503906 427.472656 96.722656 427 C 97.238281 425.875 97.714844 424.730469 98.167969 423.574219 C 97.421875 421.589844 97.421875 421.589844 96.511719 419.800781 Z M 96.511719 419.800781 " fill-opacity="1" fill-rule="nonzero"/></g></g></g></g><g clip-path="url(#e5a65877b6)"><g clip-path="url(#60ea49a1d8)"><g clip-path="url(#e74277fbbb)"><g clip-path="url(#c91e0e2500)"><path fill="#fb1744" d="M 729.457031 450.558594 C 730.710938 450.644531 731.96875 450.726562 733.226562 450.808594 C 733.207031 451.214844 733.183594 451.621094 733.164062 452.039062 C 731.746094 451.964844 730.332031 451.894531 728.871094 451.820312 C 728.726562 454.65625 728.582031 457.492188 728.4375 460.410156 C 729.851562 460.484375 731.269531 460.554688 732.730469 460.628906 C 732.707031 461.035156 732.6875 461.441406 732.667969 461.855469 C 728.890625 461.726562 728.890625 461.726562 727.761719 461.609375 C 726.699219 460.433594 727.199219 458.929688 727.273438 457.445312 C 727.296875 456.984375 727.324219 456.523438 727.351562 456.050781 C 727.371094 455.589844 727.390625 455.128906 727.414062 454.65625 C 727.628906 450.5625 727.628906 450.5625 729.457031 450.558594 Z M 729.457031 450.558594 " fill-opacity="1" fill-rule="nonzero"/></g></g></g></g><g clip-path="url(#cc78fa5dbe)"><g clip-path="url(#e8a02af375)"><g clip-path="url(#b31dcaac01)"><g clip-path="url(#078b3c1e19)"><path fill="#c7c6d3" d="M 306.921875 429.839844 C 307.730469 429.878906 308.539062 429.921875 309.375 429.964844 C 309.21875 433 309.066406 436.039062 308.90625 439.167969 C 308.097656 439.128906 307.289062 439.085938 306.453125 439.042969 C 306.609375 436.007812 306.761719 432.96875 306.921875 429.839844 Z M 306.921875 429.839844 " fill-opacity="1" fill-rule="nonzero"/></g></g></g></g><g clip-path="url(#b681a482f7)"><g clip-path="url(#2f5418c228)"><g clip-path="url(#2ae42ad46e)"><g clip-path="url(#98caa4aa57)"><path fill="#e5e5eb" d="M 271.929688 428.683594 C 272.535156 428.714844 273.144531 428.742188 273.769531 428.777344 C 273.742188 429.980469 273.703125 431.183594 273.664062 432.386719 C 273.644531 433.054688 273.625 433.726562 273.605469 434.414062 C 273.394531 436.140625 273.394531 436.140625 272.105469 437.304688 C 270.1875 437.285156 270.1875 437.285156 268.425781 437.117188 C 268.0625 436.289062 267.699219 435.457031 267.324219 434.601562 C 268.132812 434.644531 268.945312 434.683594 269.777344 434.726562 C 269.757812 435.132812 269.738281 435.535156 269.714844 435.953125 C 270.132812 435.773438 270.546875 435.589844 270.972656 435.402344 C 271.339844 433.828125 271.339844 433.828125 271.53125 432.007812 C 271.605469 431.390625 271.683594 430.769531 271.765625 430.132812 C 271.820312 429.65625 271.871094 429.175781 271.929688 428.683594 Z M 271.929688 428.683594 " fill-opacity="1" fill-rule="nonzero"/></g></g></g></g><g clip-path="url(#8c06d73adb)"><g clip-path="url(#276067e42b)"><g clip-path="url(#94aa28291c)"><g clip-path="url(#725f580d56)"><path fill="#52403d" d="M 111.140625 422.386719 C 113.214844 422.414062 113.214844 422.414062 115.433594 422.605469 C 116.597656 423.894531 116.597656 423.894531 116.648438 425.226562 C 116.609375 425.726562 116.570312 426.222656 116.53125 426.734375 C 116.492188 427.238281 116.457031 427.738281 116.417969 428.253906 C 116.371094 428.828125 116.371094 428.828125 116.316406 429.417969 C 115.710938 429.386719 115.101562 429.355469 114.476562 429.324219 C 114.570312 427.5 114.664062 425.679688 114.757812 423.800781 C 114.140625 423.972656 113.523438 424.144531 112.886719 424.320312 C 112.601562 425.929688 112.316406 427.539062 112.023438 429.199219 C 111.621094 429.179688 111.214844 429.160156 110.796875 429.136719 C 110.910156 426.910156 111.023438 424.683594 111.140625 422.386719 Z M 111.140625 422.386719 " fill-opacity="1" fill-rule="nonzero"/></g></g></g></g><g clip-path="url(#1c4a4bad1e)"><g clip-path="url(#5d1baea512)"><g clip-path="url(#78b3be8f3d)"><g clip-path="url(#5b69b95234)"><path fill="#404244" d="M 117.886719 422.726562 C 118.292969 422.75 118.695312 422.769531 119.113281 422.789062 C 119.234375 424.421875 119.355469 426.050781 119.476562 427.730469 C 120.085938 427.761719 120.691406 427.792969 121.316406 427.824219 C 121.601562 426.214844 121.886719 424.605469 122.179688 422.945312 C 122.585938 422.964844 122.988281 422.988281 123.40625 423.007812 C 123.292969 425.234375 123.179688 427.464844 123.066406 429.757812 C 120.992188 429.730469 120.992188 429.730469 118.769531 429.542969 C 117.605469 428.25 117.605469 428.25 117.554688 426.917969 C 117.59375 426.417969 117.632812 425.921875 117.671875 425.410156 C 117.710938 424.910156 117.746094 424.40625 117.785156 423.890625 C 117.816406 423.507812 117.851562 423.125 117.886719 422.726562 Z M 117.886719 422.726562 " fill-opacity="1" fill-rule="nonzero"/></g></g></g></g><g clip-path="url(#6f7fdafb0d)"><g clip-path="url(#a2639e82b9)"><g clip-path="url(#d1f8a9d98a)"><g clip-path="url(#268ec21a1b)"><path fill="#eaeaef" d="M 330.65625 434.734375 C 330.855469 434.742188 331.058594 434.753906 331.269531 434.761719 C 331.238281 436.839844 331.238281 436.839844 331.050781 439.058594 C 329.761719 440.226562 329.761719 440.226562 328.148438 440.21875 C 327.667969 440.171875 327.1875 440.121094 326.695312 440.070312 C 326.652344 440.878906 326.613281 441.691406 326.570312 442.523438 C 326.164062 442.503906 325.761719 442.484375 325.34375 442.460938 C 325.46875 440.03125 325.589844 437.601562 325.71875 435.097656 C 325.917969 435.109375 326.121094 435.117188 326.332031 435.128906 C 326.277344 436.140625 326.226562 437.152344 326.175781 438.199219 C 326.984375 438.238281 327.792969 438.28125 328.628906 438.320312 C 328.835938 437.953125 329.046875 437.582031 329.261719 437.199219 C 329.726562 436.378906 330.191406 435.554688 330.65625 434.734375 Z M 330.65625 434.734375 " fill-opacity="1" fill-rule="nonzero"/></g></g></g></g><g clip-path="url(#7843e7c1bd)"><g clip-path="url(#3058d93d91)"><g clip-path="url(#e6ebfc2f9e)"><g clip-path="url(#4657d3ad1d)"><path fill="#c3c2d0" d="M 323.324219 433.746094 C 323.710938 434.171875 324.09375 434.597656 324.488281 435.035156 C 324.148438 437.25 324.148438 437.25 323.660156 439.300781 C 323.273438 438.875 322.890625 438.449219 322.496094 438.011719 C 321.191406 438.140625 321.191406 438.140625 320.011719 438.5 C 320.082031 437.082031 320.152344 435.664062 320.226562 434.203125 C 321.027344 434.449219 321.828125 434.691406 322.648438 434.941406 C 322.875 434.546875 323.097656 434.152344 323.324219 433.746094 Z M 323.324219 433.746094 " fill-opacity="1" fill-rule="nonzero"/></g></g></g></g><g clip-path="url(#b7b72f90b0)"><g clip-path="url(#a09fb69c16)"><g clip-path="url(#537b76420f)"><g clip-path="url(#eafccdbf4f)"><path fill="#ececf0" d="M 289.007812 431.394531 C 290.222656 431.453125 291.4375 431.515625 292.691406 431.578125 C 292.667969 431.984375 292.648438 432.390625 292.628906 432.808594 C 292.003906 433.078125 292.003906 433.078125 291.371094 433.359375 C 291.023438 434.507812 291.023438 434.507812 290.859375 435.832031 C 290.742188 436.625 290.628906 437.417969 290.507812 438.238281 C 289.902344 438.207031 289.292969 438.175781 288.667969 438.144531 C 288.78125 435.917969 288.894531 433.6875 289.007812 431.394531 Z M 289.007812 431.394531 " fill-opacity="1" fill-rule="nonzero"/></g></g></g></g><g clip-path="url(#e0b851d60b)"><g clip-path="url(#7203d59a73)"><g clip-path="url(#0d6a785273)"><g clip-path="url(#f877ce8b20)"><path fill="#b4b3c4" d="M 313.023438 430.761719 C 313.824219 431.007812 314.621094 431.25 315.445312 431.5 C 315.605469 432.320312 315.769531 433.140625 315.933594 433.988281 C 315.53125 433.964844 315.125 433.945312 314.707031 433.925781 C 314.667969 434.734375 314.625 435.546875 314.582031 436.378906 C 313.976562 436.347656 313.367188 436.320312 312.742188 436.285156 C 312.140625 434.527344 312.140625 434.527344 311.703125 432.542969 C 312.140625 431.957031 312.574219 431.367188 313.023438 430.761719 Z M 313.023438 430.761719 " fill-opacity="1" fill-rule="nonzero"/></g></g></g></g><g clip-path="url(#f18eec935e)"><g clip-path="url(#fa4a27505f)"><g clip-path="url(#6f41636b45)"><g clip-path="url(#826071fec7)"><path fill="#e3e3e9" d="M 293.304688 431.609375 C 294.316406 431.660156 295.328125 431.714844 296.371094 431.765625 C 295.851562 433.972656 295.335938 436.179688 294.800781 438.453125 C 294.195312 438.421875 293.585938 438.394531 292.960938 438.363281 C 293.074219 436.132812 293.1875 433.90625 293.304688 431.609375 Z M 293.304688 431.609375 " fill-opacity="1" fill-rule="nonzero"/></g></g></g></g><g clip-path="url(#0bc50abf3a)"><g clip-path="url(#016dc1d000)"><g clip-path="url(#9cc00b8305)"><g clip-path="url(#2dde604340)"><path fill="#f31744" d="M 735.523438 454.003906 C 736.3125 454.449219 737.101562 454.894531 737.914062 455.355469 C 737.671875 456.15625 737.429688 456.953125 737.179688 457.777344 C 735.085938 457.671875 733.125 457.269531 731.074219 456.855469 C 731.097656 456.449219 731.117188 456.042969 731.136719 455.625 C 733.277344 455.429688 733.277344 455.429688 735.460938 455.230469 C 735.484375 454.824219 735.503906 454.421875 735.523438 454.003906 Z M 735.523438 454.003906 " fill-opacity="1" fill-rule="nonzero"/></g></g></g></g><g clip-path="url(#bbe8dd4b60)"><g clip-path="url(#23903df32d)"><g clip-path="url(#3b6ff31268)"><g clip-path="url(#c5eac43cad)"><path fill="#767676" d="M 92.652344 459.597656 C 92.855469 459.609375 93.058594 459.617188 93.265625 459.628906 C 93.316406 462.675781 93.363281 465.726562 93.414062 468.863281 C 92.796875 469.035156 92.179688 469.207031 91.542969 469.386719 C 91.601562 467.863281 91.667969 466.339844 91.734375 464.820312 C 91.761719 464.167969 91.761719 464.167969 91.785156 463.503906 C 91.835938 462.394531 91.921875 461.285156 92.007812 460.179688 C 92.222656 459.988281 92.433594 459.796875 92.652344 459.597656 Z M 92.652344 459.597656 " fill-opacity="1" fill-rule="nonzero"/></g></g></g></g><g clip-path="url(#9141b8d82e)"><g clip-path="url(#29ffecd8e3)"><g clip-path="url(#b0b5bb1cfb)"><g clip-path="url(#2e5c20f08a)"><path fill="#b2b1c2" d="M 301.152344 434.46875 C 302.171875 434.695312 303.183594 434.953125 304.1875 435.238281 C 303.945312 436.039062 303.699219 436.839844 303.449219 437.660156 C 302.226562 437.804688 301 437.945312 299.738281 438.089844 C 300.425781 435.125 300.425781 435.125 301.152344 434.46875 Z M 301.152344 434.46875 " fill-opacity="1" fill-rule="nonzero"/></g></g></g></g><g clip-path="url(#9bb050af4a)"><g clip-path="url(#f5a22dbf7b)"><g clip-path="url(#4015c34db6)"><g clip-path="url(#3f2d657bf0)"><path fill="#3b3764" d="M 327.589844 434.578125 C 328.183594 434.8125 328.78125 435.042969 329.398438 435.285156 C 329.347656 436.296875 329.292969 437.308594 329.242188 438.351562 C 328.433594 438.3125 327.621094 438.269531 326.789062 438.226562 C 326.8125 437.203125 326.867188 436.179688 326.945312 435.160156 C 327.15625 434.96875 327.367188 434.777344 327.589844 434.578125 Z M 327.589844 434.578125 " fill-opacity="1" fill-rule="nonzero"/></g></g></g></g><g clip-path="url(#ecbedd861a)"><g clip-path="url(#d57c03fe1b)"><g clip-path="url(#fc092de6b1)"><g clip-path="url(#5fcbcf015f)"><path fill="#322e5d" d="M 277.292969 432.03125 C 277.890625 432.265625 278.488281 432.496094 279.101562 432.738281 C 279.050781 433.75 279 434.761719 278.949219 435.804688 C 278.136719 435.765625 277.328125 435.722656 276.492188 435.683594 C 276.519531 434.65625 276.574219 433.632812 276.648438 432.613281 C 276.863281 432.421875 277.074219 432.230469 277.292969 432.03125 Z M 277.292969 432.03125 " fill-opacity="1" fill-rule="nonzero"/></g></g></g></g><g clip-path="url(#a359f5e9d0)"><g clip-path="url(#606f6574ed)"><g clip-path="url(#a9fa2cb367)"><g clip-path="url(#9b213a5d33)"><path fill="#e1e0e7" d="M 319.0625 432.914062 C 320.480469 432.988281 321.898438 433.058594 323.355469 433.132812 C 323.113281 433.933594 322.871094 434.730469 322.617188 435.554688 C 321.828125 435.109375 321.039062 434.664062 320.226562 434.203125 C 320.167969 435.417969 320.105469 436.636719 320.042969 437.886719 C 319.839844 437.875 319.636719 437.867188 319.429688 437.855469 C 319.308594 436.226562 319.1875 434.59375 319.0625 432.914062 Z M 319.0625 432.914062 " fill-opacity="1" fill-rule="nonzero"/></g></g></g></g><g clip-path="url(#a0c2e138e7)"><g clip-path="url(#f7d679d538)"><g clip-path="url(#43d3bb166c)"><g clip-path="url(#22ebf3c9b3)"><path fill="#373361" d="M 320.226562 434.203125 C 320.835938 434.234375 321.441406 434.265625 322.066406 434.296875 C 321.996094 435.714844 321.925781 437.132812 321.851562 438.59375 C 321.242188 438.5625 320.636719 438.53125 320.011719 438.5 C 320.082031 437.082031 320.152344 435.664062 320.226562 434.203125 Z M 320.226562 434.203125 " fill-opacity="1" fill-rule="nonzero"/></g></g></g></g><g clip-path="url(#eb574ae270)"><g clip-path="url(#9b0483ec5b)"><g clip-path="url(#8721bd711c)"><g clip-path="url(#00cf72035b)"><path fill="#dadae2" d="M 280.359375 432.1875 C 280.5625 432.195312 280.765625 432.207031 280.972656 432.21875 C 280.902344 433.632812 280.832031 435.050781 280.757812 436.511719 C 279.511719 437.058594 279.511719 437.058594 278.242188 437.617188 C 278.910156 433.496094 278.910156 433.496094 280.359375 432.1875 Z M 280.359375 432.1875 " fill-opacity="1" fill-rule="nonzero"/></g></g></g></g><g clip-path="url(#e1b5c5f3bb)"><g clip-path="url(#67fb1c8ab1)"><g clip-path="url(#7fb2a69b1c)"><g clip-path="url(#422fea2f48)"><path fill="#dedde5" d="M 322.527344 437.398438 C 322.6875 438.21875 322.847656 439.039062 323.015625 439.882812 C 322.003906 439.832031 320.992188 439.78125 319.949219 439.726562 C 319.703125 440.527344 319.460938 441.328125 319.210938 442.152344 C 319.089844 440.722656 319.089844 440.722656 319.367188 439.082031 C 320.957031 438.046875 320.957031 438.046875 322.527344 437.398438 Z M 322.527344 437.398438 " fill-opacity="1" fill-rule="nonzero"/></g></g></g></g><g clip-path="url(#38b37b1c00)"><g clip-path="url(#ee8dc885cf)"><g clip-path="url(#d67a609361)"><g clip-path="url(#4262cffd31)"><path fill="#f1f1f4" d="M 277.355469 430.804688 C 278.375 431.03125 279.386719 431.285156 280.390625 431.570312 C 280.328125 432.789062 280.269531 434.003906 280.207031 435.253906 C 279.957031 434.859375 279.710938 434.46875 279.457031 434.0625 C 278.496094 432.570312 278.496094 432.570312 276.710938 431.386719 C 276.925781 431.195312 277.136719 431 277.355469 430.804688 Z M 277.355469 430.804688 " fill-opacity="1" fill-rule="nonzero"/></g></g></g></g><g clip-path="url(#61a6bfde92)"><g clip-path="url(#2c1b83a4dd)"><g clip-path="url(#c60a3a98a1)"><g clip-path="url(#72cdff08b8)"><path fill="#d5d4dd" d="M 276.128906 430.742188 C 276.523438 430.964844 276.917969 431.1875 277.324219 431.417969 C 277.042969 433.171875 277.042969 433.171875 276.523438 435.066406 C 275.898438 435.441406 275.269531 435.816406 274.621094 436.203125 C 274.652344 434.128906 274.652344 434.128906 274.839844 431.90625 C 275.265625 431.523438 275.691406 431.136719 276.128906 430.742188 Z M 276.128906 430.742188 " fill-opacity="1" fill-rule="nonzero"/></g></g></g></g><g clip-path="url(#df72c4e100)"><g clip-path="url(#59637e92aa)"><g clip-path="url(#7bd92425a0)"><g clip-path="url(#5aa82c4d17)"><path fill="#e0dfe6" d="M 301.277344 432.015625 C 303.199219 431.996094 303.199219 431.996094 304.957031 432.199219 C 304.511719 432.992188 304.066406 433.78125 303.605469 434.59375 C 303.625 434.1875 303.644531 433.785156 303.667969 433.367188 C 302.441406 433.507812 301.21875 433.648438 299.957031 433.792969 C 300.390625 433.207031 300.828125 432.621094 301.277344 432.015625 Z M 301.277344 432.015625 " fill-opacity="1" fill-rule="nonzero"/></g></g></g></g><g clip-path="url(#9efb157ca4)"><g clip-path="url(#8589ed7d1e)"><g clip-path="url(#d435b59353)"><g clip-path="url(#a1a51a2012)"><path fill="#898989" d="M 98.414062 467.273438 C 98.191406 467.667969 97.96875 468.0625 97.738281 468.46875 C 96.300781 468.648438 94.859375 468.78125 93.414062 468.863281 C 93.445312 468.257812 93.476562 467.648438 93.507812 467.023438 C 95.304688 466.234375 96.550781 466.808594 98.414062 467.273438 Z M 98.414062 467.273438 " fill-opacity="1" fill-rule="nonzero"/></g></g></g></g><g clip-path="url(#c4cc4376c7)"><g clip-path="url(#8d80b7d899)"><g clip-path="url(#f8ea8e4e58)"><g clip-path="url(#b96d786109)"><path fill="#d2d1db" d="M 283.488281 431.113281 C 283.691406 431.125 283.894531 431.132812 284.101562 431.144531 C 284.011719 432.96875 283.917969 434.789062 283.824219 436.667969 C 284.226562 436.6875 284.632812 436.710938 285.050781 436.730469 C 285.027344 437.136719 285.007812 437.539062 284.988281 437.957031 C 284.179688 437.917969 283.367188 437.875 282.535156 437.832031 C 282.847656 435.617188 283.164062 433.398438 283.488281 431.113281 Z M 283.488281 431.113281 " fill-opacity="1" fill-rule="nonzero"/></g></g></g></g><g clip-path="url(#982e14fd64)"><g clip-path="url(#df7185701f)"><g clip-path="url(#32b6ef4783)"><path stroke-linecap="butt" transform="matrix(0.74904, 0.0379287, -0.0379287, 0.74904, 83.733851, 405.000264)" fill="none" stroke-linejoin="miter" d="M 0.000679614 -0.000386364 L -0.00198217 915.624568 L 904.155058 915.623843 L 904.15772 -0.00111134 L 0.000679614 -0.000386364 " stroke="#000000" stroke-width="4" stroke-opacity="1" stroke-miterlimit="4"/></g></g></g></svg>